<svg xmlns="http://www.w3.org/2000/svg" xmlns:xlink="http://www.w3.org/1999/xlink" viewBox="0 0 340.91 311.47"><defs><style>.a{fill:none;}.b{opacity:0.55;}.c{fill:#fff;}.d{fill:#711a15;}.e{fill:url(#a);}.f{fill:url(#b);}.g{fill:url(#c);}.h{fill:url(#d);}.i{fill:#fdd7c9;}.j{fill:url(#e);}.k{fill:#8c191b;}.l{fill:url(#f);}.m{opacity:0.35;}.n{clip-path:url(#g);}.o{clip-path:url(#h);}.p{clip-path:url(#i);}</style><linearGradient id="a" x1="114.94" y1="115.49" x2="114.94" y2="164.82" gradientUnits="userSpaceOnUse"><stop offset="0" stop-color="#e15c37"/><stop offset="0.86" stop-color="#d52b27"/><stop offset="1" stop-color="#cb4528"/></linearGradient><linearGradient id="b" x1="227.97" y1="116.15" x2="227.97" y2="165.49" xlink:href="#a"/><linearGradient id="c" x1="171.46" y1="123.53" x2="171.46" y2="165.22" gradientUnits="userSpaceOnUse"><stop offset="0" stop-color="#fdd7c9"/><stop offset="1" stop-color="#f48370"/></linearGradient><linearGradient id="d" x1="149.84" y1="116.53" x2="149.84" y2="161.65" gradientUnits="userSpaceOnUse"><stop offset="0" stop-color="#f37551"/><stop offset="1" stop-color="#d92e27"/></linearGradient><linearGradient id="e" x1="193.07" y1="116.03" x2="193.07" y2="164.68" xlink:href="#d"/><linearGradient id="f" x1="171.46" y1="166.65" x2="171.46" y2="234.15" gradientUnits="userSpaceOnUse"><stop offset="0" stop-color="#bc2826"/><stop offset="1" stop-color="#711a15"/></linearGradient><clipPath id="g" transform="translate(-2.46 11.03)"><polyline class="a" points="130.69 104.89 217.14 104.89 244.71 148.1 173.91 222.88 103.12 148.1 130.69 104.89"/></clipPath><clipPath id="h" transform="translate(-2.46 11.03)"><polygon class="a" points="141.64 104.36 122.97 104.7 226.3 -27.97 332.3 26.7 129.64 328.7 24.97 260.03 99.64 144.45 112.64 158.2 141.64 104.36"/></clipPath><clipPath id="i" transform="translate(-2.46 11.03)"><polygon class="a" points="109.01 138.57 98.39 155.07 45.64 12.7 122.3 -9.3 323.64 207.36 257.64 323.36 155.64 235.36 103.26 148.45 115.14 160.82 109.01 138.57"/></clipPath></defs><title>reactrb-icon_white</title><g class="b"><path class="c" d="M173.91,207l2.15,0,6.27-.1c2.75-.07,6.13-0.16,10.11-0.34s8.55-.4,13.66-0.85,10.75-1,16.88-1.74,12.72-1.81,19.73-3.08,14.41-2.92,22.11-5a219.42,219.42,0,0,0,23.77-7.67,155.26,155.26,0,0,0,24.1-11.54,80.27,80.27,0,0,0,11-8,38.15,38.15,0,0,0,8.28-9.85,19.5,19.5,0,0,0,2-5.31,14.56,14.56,0,0,0,.28-2.6c0-.43,0-0.85,0-1.27a0.35,0.35,0,1,0,0,.08l0-.24,0-.48,0-.48,0-.23,0-.11a20.88,20.88,0,0,0-.65-2.25c-0.13-.41-0.34-0.81-0.5-1.22s-0.38-.81-0.63-1.21a24.87,24.87,0,0,0-3.53-4.73A49.63,49.63,0,0,0,318,130.48c-2.07-1.22-4.25-2.37-6.49-3.45s-4.53-2.14-6.9-3.11a187.64,187.64,0,0,0-30.31-9.21c-5.3-1.17-10.65-2.29-16.09-3.23-2.72-.46-5.45-0.91-8.2-1.31s-5.5-.82-8.27-1.19a528.51,528.51,0,0,0-67.81-4.18,526.39,526.39,0,0,0-67.82,4.13c-5.53.76-11,1.55-16.47,2.49s-10.79,2.08-16.1,3.21a187.69,187.69,0,0,0-30.32,9.23,110.09,110.09,0,0,0-13.41,6.55A49.68,49.68,0,0,0,19,138.7c-2.87,3.08-4.77,6.35-5.33,9.68a5.94,5.94,0,0,0-.09.63l0,0.32,0,0.16c0,0.1,0-.34,0,0,0,0.59,0,1.46,0,1.63v0.5l0.07,0.65c0,0.44.14,0.87,0.2,1.31a19.57,19.57,0,0,0,2,5.32,38.22,38.22,0,0,0,8.29,9.86,79.1,79.1,0,0,0,11,8,155.39,155.39,0,0,0,24.11,11.54A218.48,218.48,0,0,0,83,195.94c7.7,2,15.1,3.68,22.11,5s13.6,2.34,19.73,3.07,11.77,1.31,16.88,1.73,9.68,0.67,13.66.85,7.36,0.27,10.11.34l6.27,0.1Zm0,1.5h-2.16l-6.29-.05c-5.51-.09-13.59-0.29-23.86-1s-22.72-1.83-36.89-4c-7.08-1.11-14.6-2.47-22.45-4.24s-16.05-3.92-24.45-6.7a161.3,161.3,0,0,1-25.46-10.69,87.54,87.54,0,0,1-12.3-7.93,46,46,0,0,1-10.48-11,27.78,27.78,0,0,1-3.34-7.17,22.83,22.83,0,0,1-.77-4c-0.1-.71-0.09-1.32-0.12-2s0-1.38.08-2.07a23.6,23.6,0,0,1,2.12-7.88,33,33,0,0,1,4.36-6.91A57.72,57.72,0,0,1,24.11,122a108.31,108.31,0,0,1,14.4-8.12A197.49,197.49,0,0,1,70.2,102.48a321.13,321.13,0,0,1,33.7-7.22,453.19,453.19,0,0,1,140,0,321.14,321.14,0,0,1,33.7,7.23,197.49,197.49,0,0,1,31.69,11.44,108.31,108.31,0,0,1,14.4,8.12,57.72,57.72,0,0,1,12.22,10.85c3.42,4.22,6,9.27,6.48,14.83a22.5,22.5,0,0,1-.82,8,27.79,27.79,0,0,1-3.35,7.17,46,46,0,0,1-10.48,11,87.54,87.54,0,0,1-12.3,7.93A161.3,161.3,0,0,1,290,192.52c-8.4,2.78-16.6,4.93-24.45,6.7s-15.36,3.13-22.45,4.24c-14.17,2.19-26.63,3.34-36.89,4s-18.35.87-23.86,1l-6.29.05h-2.16Z" transform="translate(-2.46 11.03)"/></g><g class="b"><path class="c" d="M126.25,181.64l1.22,1.77,3.58,5.15c1.59,2.24,3.56,5,5.93,8.2s5.11,6.87,8.33,10.85,6.83,8.37,10.87,13,8.61,9.54,13.57,14.64,10.47,10.32,16.47,15.56a219.42,219.42,0,0,0,19.65,15.43,155.27,155.27,0,0,0,23,13.54,80.28,80.28,0,0,0,12.79,4.61,38.15,38.15,0,0,0,12.79,1.36,19.49,19.49,0,0,0,5.54-1.28,14.56,14.56,0,0,0,2.31-1.22c0.37-.21.69-0.49,1-0.74a0.35,0.35,0,1,0-.07,0l0.19-.15,0.38-.31,0.38-.31,0.18-.15,0.08-.09a20.89,20.89,0,0,0,1.51-1.8c0.27-.34.49-0.74,0.74-1.09s0.46-.77.66-1.2a24.87,24.87,0,0,0,2-5.57,49.63,49.63,0,0,0,.85-13.54c-0.14-2.4-.41-4.85-0.77-7.31s-0.76-5-1.28-7.46a187.64,187.64,0,0,0-9.3-30.29c-2-5-4-10.12-6.31-15.15-1.14-2.51-2.29-5-3.5-7.53s-2.39-5-3.63-7.52A528.66,528.66,0,0,0,211,124.59l-2.46-3.65-2.39-3.48q-2.44-3.51-4.93-7t-5.05-6.89q-2.52-3.44-5.1-6.83Q186,90,180.57,83.45T169.69,70.6c-3.72-4.17-7.45-8.29-11.27-12.27s-7.75-7.79-11.66-11.55a187.69,187.69,0,0,0-24.59-20,110.09,110.09,0,0,0-12.93-7.46A49.68,49.68,0,0,0,96.35,15c-4.15-.66-7.93-0.41-11,1a5.94,5.94,0,0,0-.57.28l-0.28.14-0.14.07c-0.08,0,.27-0.2,0,0-0.5.32-1.23,0.79-1.35,0.9l-0.41.28-0.5.42c-0.35.26-.64,0.61-1,0.9a19.57,19.57,0,0,0-3.28,4.67A38.22,38.22,0,0,0,74.31,36a79.1,79.1,0,0,0-.52,13.59,155.39,155.39,0,0,0,3.9,26.44,218.48,218.48,0,0,0,6.94,24c2.61,7.53,5.38,14.58,8.25,21.1s5.66,12.59,8.48,18.08,5.49,10.49,8,15,4.85,8.4,6.93,11.8,3.89,6.26,5.37,8.57l3.42,5.25Zm-1.24.84-1.2-1.79-3.47-5.25c-3-4.62-7.35-11.44-12.53-20.33s-11.18-19.86-17.28-32.84c-3-6.49-6.1-13.49-9-21s-5.72-15.5-8.11-24A161.3,161.3,0,0,1,68,50.18a87.54,87.54,0,0,1-.3-14.63A46,46,0,0,1,71,20.7a27.78,27.78,0,0,1,4.08-6.78A22.83,22.83,0,0,1,78,11c0.54-.48,1-0.81,1.57-1.2s1.15-.75,1.76-1.09A23.6,23.6,0,0,1,89,6.1a33,33,0,0,1,8.17-.25A57.72,57.72,0,0,1,113,9.93a108.31,108.31,0,0,1,14.78,7.41A197.49,197.49,0,0,1,155,37.23a321.13,321.13,0,0,1,24.82,23.92,448.89,448.89,0,0,1,43.62,55A448,448,0,0,1,258,177.26a321.14,321.14,0,0,1,12.84,32,197.49,197.49,0,0,1,8.22,32.68,108.31,108.31,0,0,1,1.31,16.48,57.72,57.72,0,0,1-2.17,16.19c-1.59,5.2-4.32,10.18-8.68,13.66a22.5,22.5,0,0,1-7.1,3.79,27.78,27.78,0,0,1-7.81,1.23,46,46,0,0,1-15-2.53A87.54,87.54,0,0,1,226.22,285a161.3,161.3,0,0,1-23.09-15.14c-7-5.41-13.36-11-19.21-16.54s-11.18-11-16.06-16.25c-9.74-10.53-17.65-20.22-23.95-28.35s-11-14.73-14.13-19.25l-3.56-5.19Z" transform="translate(-2.46 11.03)"/></g><g class="b"><path class="c" d="M126.7,116.29l-1.2,1.78L122,123.29c-1.49,2.3-3.33,5.14-5.43,8.51s-4.49,7.26-7,11.72-5.26,9.41-8.1,14.87-5.68,11.49-8.6,18-5.73,13.5-8.4,21a219.45,219.45,0,0,0-7.11,23.89,155.28,155.28,0,0,0-4.12,26.34,80.29,80.29,0,0,0,.41,13.56,38,38,0,0,0,3.42,12.37,19.42,19.42,0,0,0,3.21,4.66,14.48,14.48,0,0,0,2,1.69c0.33,0.27.71,0.46,1.06,0.69a0.34,0.34,0,1,0-.06-0.05l0.21,0.12,0.42,0.24,0.42,0.24,0.21,0.11,0.11,0a20.85,20.85,0,0,0,2.21.73c0.41,0.12.86,0.18,1.28,0.28s0.88,0.15,1.35.16a24.77,24.77,0,0,0,5.88-.24A49.64,49.64,0,0,0,108.26,278c2.17-1,4.34-2.17,6.49-3.41s4.32-2.53,6.45-3.94a187.71,187.71,0,0,0,24.66-19.78c3.95-3.7,7.89-7.48,11.72-11.43,1.91-2,3.82-4,5.7-6s3.78-4.06,5.64-6.13a529.36,529.36,0,0,0,41.68-53.47,527.23,527.23,0,0,0,34.87-58.15c2.5-5,5-10,7.25-15s4.38-10,6.44-15.06a187.76,187.76,0,0,0,9.54-30.16,110.09,110.09,0,0,0,2.19-14.73,49.68,49.68,0,0,0-.73-13.54c-0.91-4.1-2.52-7.51-4.94-9.83a5.86,5.86,0,0,0-.47-0.43l-0.24-.21-0.12-.11c-0.07-.06.29,0.18,0,0-0.48-.34-1.18-0.85-1.33-0.92l-0.41-.28-0.57-.31c-0.37-.23-0.8-0.37-1.19-0.57a19.49,19.49,0,0,0-5.53-1.32,38.12,38.12,0,0,0-12.79,1.28,79.12,79.12,0,0,0-12.8,4.53,155.41,155.41,0,0,0-23.08,13.36,218.5,218.5,0,0,0-19.71,15.27c-6,5.19-11.55,10.36-16.54,15.41S160.93,73,156.87,77.6s-7.71,9-10.95,12.92-6,7.59-8.4,10.77-4.38,5.91-6,8.13l-3.62,5.11Zm-1.24-.85,1.22-1.78,3.59-5.15c3.18-4.48,7.91-11,14.25-19.1s14.32-17.67,24.11-28.11c4.91-5.21,10.26-10.62,16.15-16.09s12.27-11,19.29-16.36a161.32,161.32,0,0,1,23.14-14.95,87.56,87.56,0,0,1,13.45-5.68,45.86,45.86,0,0,1,15-2.43,27.71,27.71,0,0,1,7.79,1.28,22.76,22.76,0,0,1,3.72,1.61c0.64,0.32,1.14.67,1.7,1s1.12,0.79,1.66,1.23a23.47,23.47,0,0,1,5.29,6.19A32.87,32.87,0,0,1,279,24.62a57.71,57.71,0,0,1,2,16.18,108.26,108.26,0,0,1-1.46,16.43,197.55,197.55,0,0,1-8.49,32.53A321.29,321.29,0,0,1,258,121.58a449.12,449.12,0,0,1-35,60.69,448.21,448.21,0,0,1-44,54.57,321.3,321.3,0,0,1-24.95,23.68,197.55,197.55,0,0,1-27.28,19.66,108.26,108.26,0,0,1-14.8,7.29,57.71,57.71,0,0,1-15.82,4c-5.41.44-11-.24-15.86-3a22.38,22.38,0,0,1-6.13-5.19,27.71,27.71,0,0,1-4-6.8,45.86,45.86,0,0,1-3.14-14.85A87.56,87.56,0,0,1,67.5,247a161.32,161.32,0,0,1,5.59-27c2.46-8.48,5.32-16.44,8.3-23.9s6.09-14.41,9.18-20.87c6.2-12.9,12.28-23.8,17.51-32.63s9.63-15.6,12.67-20.18l3.51-5.21Z" transform="translate(-2.46 11.03)"/></g><polyline class="d" points="128.23 115.93 214.68 115.93 242.25 159.13 171.46 233.91 100.66 159.13 128.23 115.93"/><polyline class="e" points="128.23 115.93 100.66 159.13 129.23 165.13 128.23 115.93"/><polyline class="f" points="214.68 115.93 242.25 159.13 213.69 165.13 214.68 115.93"/><polygon class="g" points="213.69 165.13 171.46 122.93 129.23 165.13 213.69 165.13"/><polygon class="h" points="128.23 115.93 171.46 122.93 129.23 165.13 128.23 115.93"/><polygon class="i" points="214.68 115.93 171.46 122.93 128.23 115.93 214.68 115.93"/><polygon class="j" points="214.68 115.93 171.46 122.93 213.69 165.13 214.68 115.93"/><polygon class="k" points="100.66 159.13 171.46 233.91 129.23 165.13 100.66 159.13"/><polygon class="l" points="213.69 165.13 171.46 233.91 129.23 165.13 213.69 165.13"/><polygon class="k" points="242.25 159.13 171.46 233.91 213.69 165.13 242.25 159.13"/><g class="m"><g class="n"><g class="o"><path class="c" d="M127.53,116.85l-1.24,1.76-3.57,5.13-2.57,3.79c-0.92,1.41-1.93,2.94-3,4.62-2.14,3.34-4.56,7.21-7.1,11.64a292.12,292.12,0,0,0-16.51,32.88,258.6,258.6,0,0,0-14.58,45A158.64,158.64,0,0,0,75.3,247.8,81.65,81.65,0,0,0,75.68,261a36.66,36.66,0,0,0,3.13,11.78,17.73,17.73,0,0,0,2.83,4.29,12.86,12.86,0,0,0,1.71,1.53c0.28,0.24.62,0.42,0.92,0.63l-0.13-.09,0.21,0.12,0.42,0.25,0.42,0.25,0.2,0.12,0.09,0c0.32,0.11,1.17.5,1.88,0.68,0.36,0.12.77,0.18,1.15,0.29s0.8,0.16,1.23.19A23.25,23.25,0,0,0,95.3,281,48.22,48.22,0,0,0,108,277.26a98.32,98.32,0,0,0,13-7,187,187,0,0,0,24.94-19.34c8-7.3,15.79-15.12,23.24-23.43a435.11,435.11,0,0,0,41-54A389.57,389.57,0,0,0,241.94,114c4.33-10.15,8.09-20.36,11.25-30.42a207.08,207.08,0,0,0,7.18-29.43,99.23,99.23,0,0,0,1.29-13.43,43.75,43.75,0,0,0-1-10.71,19.32,19.32,0,0,0-1.11-3.16,6.78,6.78,0,0,0-.88-1.44,0.48,0.48,0,0,0-.1-0.1l0-.06,0,0c-0.09-.07.9,0.59,0.38,0.24l-0.8-.55-0.2-.14-0.07,0,0.11,0.07a0.62,0.62,0,0,0,.21.07l-0.15-.1c-0.08-.09-0.23-0.12-0.34-0.21a7.76,7.76,0,0,0-2.52-.71,27.61,27.61,0,0,0-9.33.73c-1.81.4-3.68,0.92-5.58,1.5s-3.82,1.3-5.74,2-3.84,1.57-5.74,2.46-3.82,1.76-5.7,2.72c-3.75,1.92-7.46,3.92-11.06,6-7.21,4.21-14,8.72-20.38,13.3S179.39,61.82,174,66.38A278.31,278.31,0,0,0,147.67,91.9c-6.83,7.58-11.82,13.87-15.14,18.22-1.66,2.17-2.9,3.87-3.74,5l-1.27,1.73h0Zm-2.89-2,4.63-7.07c3.05-4.6,7.52-11.34,13.39-19.86s13.08-18.85,21.89-30.49c4.43-5.81,9.22-12,14.64-18.27A255.27,255.27,0,0,1,197.32,20c3.4-3.19,7-6.4,10.9-9.47,1.95-1.55,4-3.08,6.06-4.58S218.6,3,220.88,1.56a88.54,88.54,0,0,1,15.29-7.62,57.22,57.22,0,0,1,19.93-4,42.69,42.69,0,0,1,12.42,1.77c1.08,0.37,2.16.69,3.23,1.16l1.61,0.69c0.6,0.28,1.28.64,1.91,1l1,0.52,0.56,0.32,0.83,0.49,0.78,0.51,0.37,0.26,0.73,0.52c0.48,0.35,1,.69,1.43,1.08a40.21,40.21,0,0,1,9.16,10.38,48.08,48.08,0,0,1,5.07,11.3,72,72,0,0,1,2.88,21A117.08,117.08,0,0,1,296.36,60c-4.25,24.47-13.69,46.67-24.75,68.07a513,513,0,0,1-38.32,61.3,461.14,461.14,0,0,1-46.37,55,312.42,312.42,0,0,1-26.35,23.84A208,208,0,0,1,131.38,288a117.9,117.9,0,0,1-16.23,7.47,66.52,66.52,0,0,1-18.27,4.07,41.19,41.19,0,0,1-10.17-.61c-0.86-.14-1.74-0.39-2.6-0.6s-1.73-.51-2.58-0.84-1.7-.66-2.53-1.07A28.8,28.8,0,0,1,76.34,295l-0.34-.2-0.21-.14-0.4-.27-1.12-.77c-0.72-.56-1.46-1.11-2.12-1.73a30.23,30.23,0,0,1-3.68-3.92,34.69,34.69,0,0,1-4.87-8.75,51.27,51.27,0,0,1-3-17.2,89,89,0,0,1,1.2-15.62,159.09,159.09,0,0,1,7.33-27.52c3-8.49,6.4-16.37,9.83-23.72s6.9-14.19,10.26-20.55c6.74-12.7,13-23.48,18.31-32.32,2.67-4.4,5-8.33,7.15-11.71L120,122l3.41-5.28,1.18-1.8h0Z" transform="translate(-2.46 11.03)"/></g><g class="p"><path class="c" d="M127.08,181.07l1.18,1.8,3.46,5.22,2.58,3.79c1,1.38,2,2.88,3.2,4.49,2.32,3.23,5,6.91,8.22,10.91a292.36,292.36,0,0,0,24.55,27.52A258.59,258.59,0,0,0,206.86,265a162.17,162.17,0,0,0,23,13.05,77.94,77.94,0,0,0,12.47,4.49,37,37,0,0,0,12.15,1.41,17.8,17.8,0,0,0,5.05-1.06,12.93,12.93,0,0,0,2.06-1c0.33-.18.62-0.42,0.93-0.63l-0.13.09,0.19-.15,0.38-.3,0.38-.3,0.18-.14,0.06-.07c0.23-.26.9-0.91,1.34-1.51,0.25-.29.46-0.65,0.7-1s0.44-.69.64-1.08a23.36,23.36,0,0,0,2-5.2,48.22,48.22,0,0,0,1.2-13.21,98.37,98.37,0,0,0-1.72-14.7,186.94,186.94,0,0,0-8.79-30.38c-3.84-10.14-8.25-20.29-13.23-30.3a434.69,434.69,0,0,0-35.09-58.11L208,121.31l-2.5-3.39q-2.56-3.42-5.16-6.8t-5.28-6.69q-2.69-3.29-5.44-6.53c-7.32-8.62-14.95-16.87-22.84-24.62s-16-15-24.2-21.7a206.86,206.86,0,0,0-24.78-17.53,99.25,99.25,0,0,0-12-6.14,43.72,43.72,0,0,0-10.35-3,19.39,19.39,0,0,0-3.37-.12,6.81,6.81,0,0,0-1.69.3,0.51,0.51,0,0,0-.14.06l-0.07,0h0a4.42,4.42,0,0,0,.36-0.26l-0.8.54-0.2.13-0.07,0,0.1-.07a0.6,0.6,0,0,0,.14-0.17l-0.15.1c-0.12,0-.2.18-0.33,0.24a7.87,7.87,0,0,0-1.61,2.1,28,28,0,0,0-2.79,9c-0.31,1.83-.53,3.77-0.67,5.75s-0.19,4-.22,6.1,0,4.16.16,6.25,0.23,4.21.42,6.31c0.4,4.2.89,8.4,1.54,12.53C87.29,82,89,90,90.9,97.63s4.05,14.81,6.32,21.51a278.56,278.56,0,0,0,14,34c4.54,9.16,8.56,16.13,11.39,20.83,1.41,2.35,2.53,4.13,3.29,5.33l1.14,1.82h0Zm-2.9,2-4.88-6.93c-3.16-4.54-7.79-11.2-13.55-19.81S93,137.15,85.43,124.64c-3.77-6.27-7.75-13-11.6-20.39a255.14,255.14,0,0,1-11.2-24c-1.71-4.35-3.37-8.88-4.79-13.66-0.72-2.38-1.4-4.83-2-7.34s-1.13-5.1-1.61-7.75a90.48,90.48,0,0,1-1.43-17.06,57,57,0,0,1,3.68-20A42.76,42.76,0,0,1,62.7,3.54C63.44,2.67,64.14,1.78,65,1L66.2-.28c0.48-.45,1.06-1,1.61-1.42l0.84-.7,0.5-.4,0.76-.6,0.76-.54L71-4.18l0.75-.49c0.51-.32,1-0.66,1.53-0.94a40.34,40.34,0,0,1,13-4.7,48.18,48.18,0,0,1,12.38-.57,72,72,0,0,1,20.62,5A117.15,117.15,0,0,1,136.5,2.72c21.25,13,38.46,29.94,54.32,48.14,7.89,9.14,15.36,18.65,22.52,28.39q2.68,3.66,5.28,7.37t5.2,7.43q2.56,3.74,5.06,7.52l2.51,3.84,2.37,3.71,2.45,3.88,2.39,3.85q2.36,3.86,4.66,7.76,4.59,7.8,8.88,15.75c5.7,10.6,11,21.37,15.76,32.32A312.36,312.36,0,0,1,280.38,206a208,208,0,0,1,7.68,34.52,117.94,117.94,0,0,1,.95,17.88A66.52,66.52,0,0,1,286,277a41.3,41.3,0,0,1-4.33,9.23c-0.45.75-1,1.47-1.52,2.19s-1.11,1.42-1.74,2.09a27.44,27.44,0,0,1-1.93,2,29,29,0,0,1-2.31,2l-0.31.24-0.21.14-0.4.27-1.13.76c-0.79.46-1.57,1-2.4,1.34a30.3,30.3,0,0,1-5,2,34.77,34.77,0,0,1-9.94,1.32,51.16,51.16,0,0,1-17.15-3.5,92.33,92.33,0,0,1-14.11-6.87,127.11,127.11,0,0,1-12.18-8.18c-3.8-2.86-7.38-5.8-10.79-8.76-6.81-5.93-12.9-12-18.49-17.9s-10.68-11.66-15.37-17.13c-9.35-11-17.07-20.82-23.36-29-3.11-4.11-5.9-7.76-8.28-11l-6-8.2-3.66-5.13L124.18,183h0Z" transform="translate(-2.46 11.03)"/></g></g></g><path class="c" d="M173.91,207.35h2.15l6.28,0c5.5-.1,13.56-0.25,23.8-1,5.12-.36,10.78-0.85,16.93-1.52s12.77-1.63,19.81-2.8a284.28,284.28,0,0,0,46.45-11.52,162.93,162.93,0,0,0,24.91-10.91,84.85,84.85,0,0,0,11.82-7.83,43.12,43.12,0,0,0,9.7-10.45,24.77,24.77,0,0,0,2.9-6.42,19.64,19.64,0,0,0,.61-7,20.56,20.56,0,0,0-1.9-6.75,29.78,29.78,0,0,0-4-6.18,54.49,54.49,0,0,0-11.6-10.1,104.93,104.93,0,0,0-14-7.73,193.93,193.93,0,0,0-31.19-11,317.24,317.24,0,0,0-33.34-6.85,444.52,444.52,0,0,0-69.36-4.8,438.63,438.63,0,0,0-69.2,5.79,332.43,332.43,0,0,0-33.11,7.3,192.72,192.72,0,0,0-30.79,11.2,103,103,0,0,0-13.7,7.66A54,54,0,0,0,16,136.2c-3,3.65-5.06,7.74-5.43,11.91,0,0.26,0,.52,0,0.78l0,0.39v0.2c0,0.09,0-.12,0,0.08,0,0.61,0,1.38.08,1.75L10.61,152l0.13,0.77c0.06,0.52.24,1,.34,1.54a22.76,22.76,0,0,0,2.66,5.89,41.72,41.72,0,0,0,9.24,10,82.79,82.79,0,0,0,11.49,7.75A165.52,165.52,0,0,0,59,189a292.48,292.48,0,0,0,46.09,12.09c7,1.27,13.61,2.31,19.74,3.09s11.78,1.32,16.89,1.76,9.68,0.71,13.66.9,7.37,0.3,10.12.38l6.27,0.12Zm0,0.8h-8.45c-5.51,0-13.59-.23-23.86-0.75-5.14-.26-10.82-0.64-17-1.19s-12.87-1.2-20-2.13S89.93,201.94,82,200.35s-16.21-3.56-24.75-6.16a155.32,155.32,0,0,1-26-10.29,89.77,89.77,0,0,1-12.78-8A47.9,47.9,0,0,1,7.26,164.37a30.51,30.51,0,0,1-3.74-7.87C3.34,155.76,3.1,155,3,154.3l-0.21-1.12c-0.06-.39-0.1-0.82-0.15-1.22-0.12-.91-0.11-1.43-0.15-2.1,0,0,0-.33,0-0.4v-0.29l0-.58c0-.38,0-0.77.06-1.16a26.51,26.51,0,0,1,2.35-8.85A35.92,35.92,0,0,1,9.61,131a59.35,59.35,0,0,1,12.83-11.44,111.23,111.23,0,0,1,14.81-8.33,199.63,199.63,0,0,1,32.23-11.4,308.55,308.55,0,0,1,34-7,456.28,456.28,0,0,1,70.38-4.78,450.43,450.43,0,0,1,70.22,5.77,322.48,322.48,0,0,1,33.81,7.4,198.68,198.68,0,0,1,31.83,11.65,109.4,109.4,0,0,1,14.51,8.26,58.71,58.71,0,0,1,12.38,11.09c3.49,4.35,6.18,9.54,6.62,15.38,0,0.39,0,.67,0,1v0.73c0,0.06,0,.31,0,0.33,0,0.71,0,1.41-.15,2.11a23.75,23.75,0,0,1-.83,4.11,28.55,28.55,0,0,1-3.5,7.35,46.59,46.59,0,0,1-10.73,11.11,88,88,0,0,1-12.45,7.87,157.74,157.74,0,0,1-25.63,10.43c-8.44,2.68-16.67,4.72-24.53,6.41s-15.38,3-22.47,4.06-13.75,1.82-19.91,2.42-11.84,1.09-17,1.42c-10.26.66-18.33,0.94-23.84,1l-6.29.08Z" transform="translate(-2.46 11.03)"/><g class="o"><path class="c" d="M126.41,116.09l-1.21,1.78-3.5,5.19c-3,4.58-7.45,11.3-12.62,20.14-2.59,4.42-5.38,9.35-8.3,14.79s-5.88,11.42-8.91,17.87A287.67,287.67,0,0,0,75.16,220.6a163,163,0,0,0-5.1,26.65,84.87,84.87,0,0,0-.24,14.15,43,43,0,0,0,3.1,13.88,24.7,24.7,0,0,0,3.64,6,19.51,19.51,0,0,0,5.4,4.45A20.43,20.43,0,0,0,88.58,288a29.67,29.67,0,0,0,7.33.2,54.49,54.49,0,0,0,14.84-3.88A104.88,104.88,0,0,0,125,277.11,194,194,0,0,0,151.6,257.6,317.4,317.4,0,0,0,176,234a444.76,444.76,0,0,0,43.06-54.39,438.84,438.84,0,0,0,34.28-60.22A332.69,332.69,0,0,0,266.08,88a192.78,192.78,0,0,0,8.18-31.66,103,103,0,0,0,1.44-15.6A54,54,0,0,0,274,26.1c-1.3-4.53-3.5-8.54-6.72-11.18-0.19-.18-0.41-0.32-0.61-0.48l-0.31-.23-0.15-.12-0.07,0c-0.52-.33-1.15-0.77-1.49-0.92L264,12.78l-0.71-.33c-0.46-.24-1-0.38-1.46-0.58a22.68,22.68,0,0,0-6.34-1.13,41.62,41.62,0,0,0-13.42,2,82.81,82.81,0,0,0-12.85,5.11,165.59,165.59,0,0,0-22.91,14c-7,5.07-13.51,10.36-19.49,15.61s-11.47,10.46-16.47,15.51-9.55,9.92-13.65,14.53-7.73,9-11,12.91-6,7.57-8.44,10.74-4.4,5.9-6,8.11l-3.64,5.1Zm-0.66-.45,1.21-1.78,3.55-5.17c3.13-4.52,7.86-11.05,14.07-19.22,3.11-4.08,6.63-8.55,10.57-13.33s8.26-9.91,13.05-15.24A297.53,297.53,0,0,1,203,27.45a155.3,155.3,0,0,1,23.13-15.64,89.79,89.79,0,0,1,13.75-6.05,47.8,47.8,0,0,1,15.84-2.71,30.44,30.44,0,0,1,8.6,1.35c0.71,0.26,1.43.47,2.12,0.79l1,0.46c0.36,0.17.73,0.37,1.09,0.57,0.81,0.42,1.24.72,1.81,1.07l0.33,0.22L271,7.66,271.43,8c0.31,0.23.63,0.44,0.92,0.7a26.38,26.38,0,0,1,6,6.93,35.81,35.81,0,0,1,3.54,8.16,59.33,59.33,0,0,1,2.15,17,111.18,111.18,0,0,1-1.52,16.89,199.69,199.69,0,0,1-8.83,33,308.64,308.64,0,0,1-13.49,31.94,456.55,456.55,0,0,1-35.78,60.62A450.67,450.67,0,0,1,180,237.79a322.65,322.65,0,0,1-25.15,23.67,198.74,198.74,0,0,1-27.53,19.66,109.35,109.35,0,0,1-15,7.3,58.7,58.7,0,0,1-16.11,4c-5.54.43-11.34-.28-16.4-3.2-0.35-.18-0.57-0.35-0.86-0.53l-0.41-.26-0.2-.13-0.27-.19c-0.56-.43-1.14-0.83-1.66-1.31a23.68,23.68,0,0,1-2.91-3,28.48,28.48,0,0,1-4.07-7,46.49,46.49,0,0,1-3.06-15.1A88.06,88.06,0,0,1,67,246.93a157.75,157.75,0,0,1,5.9-27c2.56-8.45,5.52-16.38,8.59-23.8s6.25-14.34,9.37-20.77,6.24-12.35,9.21-17.77,5.78-10.36,8.4-14.77c5.25-8.81,9.57-15.62,12.59-20.21l3.48-5.22Z" transform="translate(-2.46 11.03)"/></g><g class="p"><path class="c" d="M126,181.83l1.21,1.78,3.55,5.18c3.15,4.5,7.79,11.11,14.11,19.19,3.16,4,6.73,8.47,10.72,13.19S164,230.86,168.94,236a284.28,284.28,0,0,0,35.51,32.08,162.93,162.93,0,0,0,23,14.56,84.85,84.85,0,0,0,13.1,5.43,43.12,43.12,0,0,0,14.09,2.21,24.77,24.77,0,0,0,6.94-1.18,19.63,19.63,0,0,0,6.14-3.39,20.56,20.56,0,0,0,4.54-5.34,29.78,29.78,0,0,0,2.9-6.75A54.49,54.49,0,0,0,277,258.4a104.93,104.93,0,0,0-1.41-15.93,193.93,193.93,0,0,0-8.34-32A317.23,317.23,0,0,0,254.31,179a444.54,444.54,0,0,0-34.76-60.19,438.59,438.59,0,0,0-43.47-54.17,332.43,332.43,0,0,0-24.55-23.39A192.72,192.72,0,0,0,125,22a103,103,0,0,0-14-7.08,54,54,0,0,0-14.31-3.8c-4.7-.46-9.25.13-12.91,2.15-0.24.11-.45,0.27-0.67,0.4l-0.33.2-0.17.1-0.07,0c-0.5.36-1.14,0.79-1.41,1l-0.54.44L80,16c-0.39.34-.72,0.77-1.08,1.14a22.76,22.76,0,0,0-3.4,5.49,41.72,41.72,0,0,0-3.11,13.24,82.79,82.79,0,0,0,0,13.86A165.53,165.53,0,0,0,77,76.26a292.48,292.48,0,0,0,15.73,45c2.86,6.53,5.69,12.58,8.46,18.1s5.48,10.51,8,15,4.82,8.43,6.89,11.83,3.87,6.28,5.34,8.6l3.4,5.27Zm-0.66.45-1.21-1.78-3.51-5.22c-3.05-4.59-7.4-11.4-12.71-20.21-2.65-4.41-5.52-9.33-8.52-14.77s-6.2-11.34-9.4-17.77-6.43-13.37-9.53-20.84-6.11-15.43-8.72-24a155.32,155.32,0,0,1-6-27.33,89.77,89.77,0,0,1-.54-15A47.9,47.9,0,0,1,68.5,19.61a30.51,30.51,0,0,1,4.44-7.5c0.5-.56,1-1.16,1.52-1.68l0.81-.8c0.29-.27.62-0.54,0.93-0.81,0.69-.6,1.12-0.88,1.66-1.29l0.33-.23,0.24-.15,0.49-.31c0.33-.2.65-0.42,1-0.6a26.51,26.51,0,0,1,8.65-3,35.92,35.92,0,0,1,8.9-.3,59.35,59.35,0,0,1,16.66,4.25,111.23,111.23,0,0,1,15.19,7.63,199.63,199.63,0,0,1,27.47,20.36,308.55,308.55,0,0,1,24.79,24.35,456.28,456.28,0,0,1,43.28,55.69,450.39,450.39,0,0,1,34.46,61.47,322.48,322.48,0,0,1,12.75,32.18,198.68,198.68,0,0,1,8.13,32.91,109.39,109.39,0,0,1,1.25,16.65,58.71,58.71,0,0,1-2.28,16.47c-1.66,5.32-4.46,10.46-9.05,14.08-0.3.26-.54,0.4-0.81,0.6l-0.39.28-0.2.14-0.28.18c-0.61.36-1.2,0.76-1.83,1.06a23.75,23.75,0,0,1-3.87,1.6,28.55,28.55,0,0,1-8,1.2,46.59,46.59,0,0,1-15.21-2.69A88,88,0,0,1,226,285.42,157.74,157.74,0,0,1,203,270c-6.94-5.5-13.23-11.18-19-16.77s-11.09-11.08-15.92-16.37-9.19-10.39-13.14-15.16-7.52-9.21-10.66-13.27c-6.28-8.14-11-14.68-14.18-19.19l-3.58-5.17Z" transform="translate(-2.46 11.03)"/></g></svg>