<?xml version="1.0" encoding="utf-8"?>
<!-- Generator: Adobe Illustrator 19.2.1, SVG Export Plug-In . SVG Version: 6.00 Build 0)  -->
<svg version="1.1" id="Layer_1" xmlns="http://www.w3.org/2000/svg" xmlns:xlink="http://www.w3.org/1999/xlink" x="0px" y="0px"
	 viewBox="0 0 340.9 298" style="enable-background:new 0 0 340.9 298;" xml:space="preserve">
<style type="text/css">
	.st0{opacity:0.55;}
	.st1{fill:#FFFFFF;}
	.st2{fill:#711A15;}
	.st3{fill:url(#SVGID_1_);}
	.st4{fill:url(#SVGID_2_);}
	.st5{fill:url(#SVGID_3_);}
	.st6{fill:url(#SVGID_4_);}
	.st7{fill:#FDD7C9;}
	.st8{fill:url(#SVGID_5_);}
	.st9{fill:#8C191B;}
	.st10{fill:url(#SVGID_6_);}
	.st11{clip-path:url(#SVGID_11_);}
	.st12{clip-path:url(#SVGID_12_);}
	.st13{opacity:0.35;}
	.st14{clip-path:url(#SVGID_18_);}
	.st15{clip-path:url(#SVGID_19_);}
	.st16{clip-path:url(#SVGID_20_);}
	.st17{clip-path:url(#SVGID_21_);}
	.st18{clip-path:url(#SVGID_22_);}
	.st19{fill:#08AFDD;}
	.st20{clip-path:url(#SVGID_25_);}
	.st21{clip-path:url(#SVGID_26_);fill:#FFFFFF;}
	.st22{clip-path:url(#SVGID_29_);}
	.st23{clip-path:url(#SVGID_30_);}
	.st24{clip-path:url(#SVGID_32_);}
</style>
<title>reactrb-logo_white</title>
<g class="st0">
	<path class="st1" d="M171.5,204.6h2.1l6.3-0.1c2.8-0.1,6.1-0.2,10.1-0.3s8.6-0.4,13.7-0.9s10.8-1,16.9-1.7s12.7-1.8,19.7-3.1
		s14.4-2.9,22.1-5c8.1-2.1,16-4.7,23.8-7.7c8.4-3.1,16.4-7,24.1-11.5c3.9-2.4,7.6-5,11-8c3.3-2.8,6.1-6.1,8.3-9.9
		c0.9-1.7,1.6-3.5,2-5.3c0.2-0.9,0.3-1.7,0.3-2.6c0-0.4,0-0.9,0-1.3c0-0.2-0.2-0.3-0.4-0.3c-0.2,0-0.3,0.2-0.3,0.4s0.2,0.3,0.4,0.3
		c0.2,0,0.3-0.1,0.3-0.3v-0.2v-0.5v-0.5v-0.2v-0.1c-0.2-0.8-0.4-1.5-0.6-2.2c-0.1-0.4-0.3-0.8-0.5-1.2s-0.4-0.8-0.6-1.2
		c-1-1.7-2.3-3.3-3.7-4.7c-3.2-3.2-6.8-6-10.8-8.3c-2.1-1.2-4.2-2.4-6.5-3.4s-4.5-2.1-6.9-3.1c-9.8-3.9-20-7-30.3-9.2
		c-5.3-1.2-10.6-2.3-16.1-3.2c-2.7-0.5-5.5-0.9-8.2-1.3s-5.5-0.8-8.3-1.2c-22.5-2.9-45.1-4.3-67.8-4.2h-4.4H163
		c-2.9,0-5.7,0.1-8.6,0.2c-2.8,0.1-5.7,0.2-8.5,0.3c-2.8,0.1-5.7,0.2-8.5,0.4c-5.7,0.3-11.3,0.8-16.9,1.3s-11.2,1.2-16.7,1.8
		c-5.5,0.8-11,1.6-16.5,2.5s-10.8,2.1-16.1,3.2c-10.3,2.2-20.5,5.3-30.3,9.2c-4.6,1.9-9.1,4.1-13.4,6.6c-4,2.3-7.6,5-10.8,8.3
		c-2.9,3.1-4.8,6.4-5.3,9.7c0,0.2-0.1,0.4-0.1,0.6v0.3v0.2c0,0.1,0-0.3,0,0c0,0.6,0,1.5,0,1.6v0.5l0.1,0.6c0,0.4,0.1,0.9,0.2,1.3
		c0.4,1.9,1.1,3.7,2,5.3c2.2,3.7,5,7.1,8.3,9.9c3.4,3,7.1,5.7,11,8c7.7,4.5,15.8,8.4,24.1,11.5c7.8,3,15.7,5.6,23.8,7.7
		c7.7,2,15.1,3.7,22.1,5s13.6,2.3,19.7,3.1s11.8,1.3,16.9,1.7s9.7,0.7,13.7,0.9s7.4,0.3,10.1,0.3l6.3,0.1L171.5,204.6z M171.5,206.1
		h-2.2L163,206c-5.5-0.1-13.6-0.3-23.9-1s-22.7-1.8-36.9-4c-7.1-1.1-14.6-2.5-22.4-4.2s-16-3.9-24.4-6.7
		c-8.8-2.8-17.3-6.4-25.5-10.7c-4.3-2.3-8.4-4.9-12.3-7.9c-4.1-3.1-7.6-6.8-10.5-11c-1.4-2.2-2.6-4.6-3.3-7.2
		c-0.4-1.3-0.6-2.6-0.8-4c-0.1-0.7-0.1-1.3-0.1-2s0-1.4,0.1-2.1c0.2-2.7,1-5.4,2.1-7.9c1.2-2.5,2.6-4.8,4.4-6.9
		c3.5-4.2,7.7-7.8,12.2-10.9c4.6-3.1,9.4-5.8,14.4-8.1c10.2-4.7,20.8-8.5,31.7-11.4c11.1-3,22.3-5.4,33.7-7.2
		c46.4-7.3,93.6-7.3,140,0c11.4,1.8,22.6,4.2,33.7,7.2c10.9,2.9,21.5,6.7,31.7,11.5c5,2.3,9.8,5.1,14.4,8.1s8.7,6.7,12.2,10.9
		c3.4,4.2,6,9.3,6.5,14.8c0.2,2.7-0.1,5.4-0.8,8c-0.8,2.5-1.9,5-3.4,7.2c-2.9,4.2-6.4,7.9-10.5,11c-3.9,3-8,5.6-12.3,7.9
		c-8.2,4.3-16.7,7.9-25.5,10.7c-8.4,2.8-16.6,4.9-24.5,6.7s-15.4,3.1-22.4,4.2c-14.2,2.2-26.6,3.3-36.9,4s-18.4,0.9-23.9,1l-6.3,0.1
		L171.5,206.1L171.5,206.1z"/>
</g>
<g class="st0">
	<path class="st1" d="M123.8,179.3l1.2,1.8l3.6,5.1c1.6,2.2,3.6,5,5.9,8.2s5.1,6.9,8.3,10.9s6.8,8.4,10.9,13s8.6,9.5,13.6,14.6
		s10.5,10.3,16.5,15.6c6.3,5.5,12.8,10.7,19.6,15.4c7.3,5.2,15,9.7,23,13.5c4.1,1.9,8.4,3.4,12.8,4.6c4.2,1.2,8.5,1.7,12.8,1.4
		c1.9-0.2,3.8-0.6,5.5-1.3c0.8-0.3,1.6-0.7,2.3-1.2c0.4-0.2,0.7-0.5,1-0.7c0.2,0,0.3-0.2,0.3-0.4c0-0.2-0.2-0.3-0.4-0.3
		c-0.2,0-0.3,0.2-0.3,0.4c0,0.1,0.1,0.3,0.3,0.3l0.2-0.1l0.4-0.3l0.4-0.3l0.2-0.1l0.1-0.1c0.5-0.6,1-1.2,1.5-1.8
		c0.3-0.3,0.5-0.7,0.7-1.1s0.5-0.8,0.7-1.2c0.9-1.8,1.6-3.6,2-5.6c0.9-4.5,1.2-9,0.9-13.5c-0.1-2.4-0.4-4.9-0.8-7.3s-0.8-5-1.3-7.5
		c-2.2-10.3-5.4-20.5-9.3-30.3c-2-5-4-10.1-6.3-15.1c-1.1-2.5-2.3-5-3.5-7.5s-2.4-5-3.6-7.5c-10.2-20.2-21.7-39.8-34.4-58.5
		l-2.5-3.6l-2.4-3.5c-1.6-2.3-3.3-4.7-4.9-7c-1.7-2.3-3.3-4.6-5.1-6.9c-1.7-2.3-3.4-4.6-5.1-6.8c-3.4-4.5-7-9-10.5-13.3
		c-3.6-4.3-7.2-8.6-10.9-12.9c-3.7-4.2-7.4-8.3-11.3-12.3s-7.8-7.7-11.7-11.5c-7.6-7.3-15.8-14-24.6-20c-4.1-2.8-8.5-5.3-12.9-7.5
		c-4.1-2-8.4-3.5-12.9-4.3c-4.2-0.7-7.9-0.4-11,1c-0.2,0.1-0.4,0.2-0.6,0.3l-0.2,0l-0.2,0.1c-0.1,0,0.3-0.2,0,0
		c-0.5,0.3-1.2,0.8-1.3,0.9l-0.4,0.3l-0.5,0.4c-0.3,0.3-0.6,0.6-1,0.9c-1.3,1.4-2.4,3-3.3,4.7c-1.8,3.9-3,8.1-3.5,12.3
		c-0.6,4.5-0.7,9.1-0.5,13.6c0.5,8.9,1.8,17.8,3.9,26.4c1.9,8.1,4.2,16.1,6.9,24c2.6,7.5,5.4,14.6,8.2,21.1s5.6,12.6,8.4,18.1
		s5.5,10.5,8,15s4.8,8.4,6.9,11.8s3.9,6.3,5.4,8.6l3.4,5.2L123.8,179.3z M122.5,180.1l-1.2-1.8l-3.5-5.2c-3-4.6-7.3-11.4-12.5-20.3
		S94.1,132.9,88,120c-3-6.5-6.1-13.5-9-21s-5.7-15.5-8.1-24c-2.6-8.9-4.4-17.9-5.4-27.1c-0.5-4.9-0.6-9.8-0.3-14.6
		c0.3-5.1,1.4-10.1,3.3-14.8c1-2.4,2.4-4.7,4.1-6.8c0.9-1,1.8-2,2.9-2.9c0.5-0.5,1-0.8,1.6-1.2s1.2-0.8,1.8-1.1
		c2.4-1.3,5-2.2,7.7-2.7c2.7-0.4,5.4-0.5,8.2-0.2c5.4,0.6,10.8,2,15.8,4.1c5.1,2.1,10,4.6,14.8,7.4c9.6,5.8,18.7,12.5,27.2,19.9
		c8.7,7.5,17,15.5,24.8,23.9c16,17.2,30.5,35.6,43.6,55c13.1,19.4,24.7,39.9,34.6,61.1c4.8,10.4,9.1,21.1,12.8,32
		c3.7,10.6,6.4,21.6,8.2,32.7c0.9,5.5,1.3,11,1.3,16.5s-0.7,10.9-2.2,16.2c-1.6,5.2-4.3,10.2-8.7,13.7c-2.1,1.7-4.5,3-7.1,3.8
		c-2.5,0.8-5.2,1.2-7.8,1.2c-5.1,0-10.2-0.9-15-2.5c-4.6-1.5-9.1-3.5-13.4-5.8c-8.1-4.4-15.8-9.4-23.1-15.1
		c-7-5.4-13.4-11-19.2-16.5s-11.2-11-16.1-16.3c-9.7-10.5-17.6-20.2-23.9-28.4s-11-14.7-14.1-19.2l-3.6-5.2L122.5,180.1z"/>
</g>
<g class="st0">
	<path class="st1" d="M124.2,113.9l-1.2,1.8l-3.5,5.2c-1.5,2.3-3.3,5.1-5.4,8.5s-4.5,7.3-7,11.7s-5.3,9.4-8.1,14.9s-5.7,11.5-8.6,18
		s-5.7,13.5-8.4,21c-2.8,7.8-5.2,15.8-7.1,23.9c-2.1,8.6-3.5,17.4-4.1,26.3c-0.2,4.5-0.1,9.1,0.4,13.6c0.4,4.3,1.6,8.5,3.4,12.4
		c0.8,1.7,1.9,3.3,3.2,4.7c0.6,0.6,1.3,1.2,2,1.7c0.3,0.3,0.7,0.5,1.1,0.7c0.2,0.1,0.4,0.1,0.5-0.1s0.1-0.4-0.1-0.5
		s-0.4-0.1-0.5,0.1c-0.1,0.1-0.1,0.3,0,0.4l0.2,0.1l0.4,0.2l0.4,0.2l0.2,0.1h0.1c0.7,0.3,1.5,0.5,2.2,0.7c0.4,0.1,0.9,0.2,1.3,0.3
		s0.9,0.1,1.3,0.2c2,0.2,3.9,0.1,5.9-0.2c4.5-0.8,8.8-2.2,12.9-4.2c2.2-1,4.3-2.2,6.5-3.4s4.3-2.5,6.4-3.9
		c8.8-5.9,17-12.5,24.7-19.8c3.9-3.7,7.9-7.5,11.7-11.4c1.9-2,3.8-4,5.7-6s3.8-4.1,5.6-6.1c15-16.9,29-34.8,41.7-53.5
		c12.9-18.6,24.5-38,34.9-58.1c2.5-5,5-10,7.3-15c2.2-5,4.4-10,6.4-15.1c4-9.8,7.2-19.9,9.5-30.2c1.1-4.8,1.8-9.7,2.2-14.6
		c0.4-4.5,0.1-9.1-0.7-13.5c-0.9-4.1-2.5-7.5-4.9-9.8c-0.1-0.2-0.3-0.3-0.5-0.4l-0.2-0.2l-0.1-0.1c-0.1-0.1,0.3,0.2,0,0
		c-0.5-0.3-1.2-0.8-1.3-0.9l-0.4-0.3l-0.6-0.3c-0.4-0.2-0.8-0.4-1.2-0.6c-1.8-0.7-3.6-1.2-5.5-1.3c-4.3-0.3-8.6,0.1-12.8,1.3
		c-4.4,1.1-8.7,2.7-12.8,4.5c-8.1,3.8-15.8,8.3-23.1,13.4c-6.9,4.7-13.4,9.8-19.7,15.3c-6,5.2-11.6,10.4-16.5,15.4
		s-9.6,9.9-13.6,14.5s-7.7,9-10.9,12.9s-6,7.6-8.4,10.8s-4.4,5.9-6,8.1l-3.6,5.1L124.2,113.9z M123,113.1l1.2-1.8l3.6-5.1
		c3.2-4.5,7.9-11,14.3-19.1s14.3-17.6,24.1-28.1c4.9-5.2,10.3-10.6,16.1-16.1s12.3-11,19.3-16.4c7.3-5.6,15-10.6,23.1-14.9
		c4.3-2.3,8.8-4.2,13.4-5.7c4.8-1.6,9.9-2.5,15-2.4c2.6,0.1,5.3,0.5,7.8,1.3c1.3,0.4,2.5,1,3.7,1.6c0.6,0.3,1.1,0.7,1.7,1
		s1.1,0.8,1.7,1.2c2.1,1.7,3.9,3.8,5.3,6.2s2.5,4.9,3.2,7.5c1.4,5.3,2.1,10.7,2,16.2s-0.6,11-1.5,16.4c-1.9,11.1-4.8,22-8.5,32.6
		c-3.8,10.8-8.2,21.4-13.1,31.8c-10.1,21.1-21.8,41.4-35,60.7s-27.9,37.6-44,54.6c-7.9,8.3-16.2,16.2-24.9,23.7
		c-8.5,7.3-17.6,13.9-27.3,19.7c-4.7,2.8-9.7,5.2-14.8,7.3c-5.1,2.1-10.4,3.4-15.8,4c-5.4,0.4-11-0.2-15.9-3
		c-2.3-1.3-4.4-3.1-6.1-5.2s-3-4.4-4-6.8c-1.9-4.7-2.9-9.8-3.1-14.9c-0.3-4.9-0.1-9.8,0.4-14.6c1.1-9.1,3-18.2,5.6-27
		c2.5-8.5,5.3-16.4,8.3-23.9s6.1-14.4,9.2-20.9c6.2-12.9,12.3-23.8,17.5-32.6s9.6-15.6,12.7-20.2l3.5-5.2L123,113.1z"/>
</g>
<polyline class="st2" points="128.2,102.5 214.7,102.5 242.2,145.7 171.5,220.5 100.7,145.7 128.2,102.5 "/>
<linearGradient id="SVGID_1_" gradientUnits="userSpaceOnUse" x1="114.95" y1="4778.1299" x2="114.95" y2="4827.46" gradientTransform="matrix(1 0 0 1 0 -4676)">
	<stop  offset="0" style="stop-color:#E15C37"/>
	<stop  offset="0.86" style="stop-color:#D52B27"/>
	<stop  offset="1" style="stop-color:#CB4528"/>
</linearGradient>
<polyline class="st3" points="128.2,102.5 100.7,145.7 129.2,151.7 128.2,102.5 "/>
<linearGradient id="SVGID_2_" gradientUnits="userSpaceOnUse" x1="227.95" y1="4778.79" x2="227.95" y2="4828.1299" gradientTransform="matrix(1 0 0 1 0 -4676)">
	<stop  offset="0" style="stop-color:#E15C37"/>
	<stop  offset="0.86" style="stop-color:#D52B27"/>
	<stop  offset="1" style="stop-color:#CB4528"/>
</linearGradient>
<polyline class="st4" points="214.7,102.5 242.2,145.7 213.7,151.7 214.7,102.5 "/>
<linearGradient id="SVGID_3_" gradientUnits="userSpaceOnUse" x1="171.45" y1="4786.1699" x2="171.45" y2="4827.8599" gradientTransform="matrix(1 0 0 1 0 -4676)">
	<stop  offset="0" style="stop-color:#FDD7C9"/>
	<stop  offset="1" style="stop-color:#F48370"/>
</linearGradient>
<polygon class="st5" points="213.7,151.7 171.5,109.5 129.2,151.7 "/>
<linearGradient id="SVGID_4_" gradientUnits="userSpaceOnUse" x1="149.85" y1="4779.1699" x2="149.85" y2="4824.29" gradientTransform="matrix(1 0 0 1 0 -4676)">
	<stop  offset="0" style="stop-color:#F37551"/>
	<stop  offset="1" style="stop-color:#D92E27"/>
</linearGradient>
<polygon class="st6" points="128.2,102.5 171.5,109.5 129.2,151.7 "/>
<polygon class="st7" points="214.7,102.5 171.5,109.5 128.2,102.5 "/>
<linearGradient id="SVGID_5_" gradientUnits="userSpaceOnUse" x1="193.1" y1="4778.6699" x2="193.1" y2="4827.3198" gradientTransform="matrix(1 0 0 1 0 -4676)">
	<stop  offset="0" style="stop-color:#F37551"/>
	<stop  offset="1" style="stop-color:#D92E27"/>
</linearGradient>
<polygon class="st8" points="214.7,102.5 171.5,109.5 213.7,151.7 "/>
<polygon class="st9" points="100.7,145.7 171.5,220.5 129.2,151.7 "/>
<linearGradient id="SVGID_6_" gradientUnits="userSpaceOnUse" x1="171.45" y1="4829.29" x2="171.45" y2="4896.79" gradientTransform="matrix(1 0 0 1 0 -4676)">
	<stop  offset="0" style="stop-color:#BC2826"/>
	<stop  offset="1" style="stop-color:#711A15"/>
</linearGradient>
<polygon class="st10" points="213.7,151.7 171.5,220.5 129.2,151.7 "/>
<polygon class="st9" points="242.2,145.7 171.5,220.5 213.7,151.7 "/>
<g>
	<g>
		<g>
			<defs>
				<polyline id="SVGID_7_" points="128.2,102.5 214.7,102.5 242.2,145.7 171.5,220.5 100.7,145.7 128.2,102.5 				"/>
			</defs>
			<clipPath id="SVGID_8_">
				<use xlink:href="#SVGID_7_"  style="overflow:visible;"/>
			</clipPath>
		</g>
		<g>
			<defs>
				<polyline id="SVGID_9_" points="128.2,102.5 214.7,102.5 242.2,145.7 171.5,220.5 100.7,145.7 128.2,102.5 				"/>
			</defs>
			<defs>
				<polygon id="SVGID_10_" points="139.2,102 120.5,102.3 223.8,-30.3 329.8,24.3 127.2,326.3 22.5,257.7 97.2,142.1 110.2,155.8 
									"/>
			</defs>
			<clipPath id="SVGID_11_">
				<use xlink:href="#SVGID_9_"  style="overflow:visible;"/>
			</clipPath>
			<clipPath id="SVGID_12_" class="st11">
				<use xlink:href="#SVGID_10_"  style="overflow:visible;"/>
			</clipPath>
			<g class="st12">
				<g class="st13">
					<g>
						<defs>
							<polygon id="SVGID_13_" points="139.2,102 120.5,102.3 223.8,-30.3 329.8,24.3 127.2,326.3 22.5,257.7 97.2,142.1 
								110.2,155.8 							"/>
						</defs>
						<defs>
							<polygon id="SVGID_14_" points="139.2,102 120.5,102.3 223.8,-30.3 329.8,24.3 127.2,326.3 22.5,257.7 97.2,142.1 
								110.2,155.8 							"/>
						</defs>
						<defs>
							<polygon id="SVGID_15_" points="106.5,136.2 95.9,152.7 43.2,10.3 119.8,-11.7 321.2,205 255.2,321 153.2,233 100.8,146.1 
								112.7,158.5 							"/>
						</defs>
						<defs>
							<polygon id="SVGID_16_" points="139.2,102 120.5,102.3 223.8,-30.3 329.8,24.3 127.2,326.3 22.5,257.7 97.2,142.1 
								110.2,155.8 							"/>
						</defs>
						<defs>
							<polygon id="SVGID_17_" points="106.5,136.2 95.9,152.7 43.2,10.3 119.8,-11.7 321.2,205 255.2,321 153.2,233 100.8,146.1 
								112.7,158.5 							"/>
						</defs>
						<clipPath id="SVGID_18_">
							<use xlink:href="#SVGID_13_"  style="overflow:visible;"/>
						</clipPath>
						<clipPath id="SVGID_19_" class="st14">
							<use xlink:href="#SVGID_14_"  style="overflow:visible;"/>
						</clipPath>
						<clipPath id="SVGID_20_" class="st15">
							<use xlink:href="#SVGID_15_"  style="overflow:visible;"/>
						</clipPath>
						<clipPath id="SVGID_21_" class="st16">
							<use xlink:href="#SVGID_16_"  style="overflow:visible;"/>
						</clipPath>
						<clipPath id="SVGID_22_" class="st17">
							<use xlink:href="#SVGID_17_"  style="overflow:visible;"/>
						</clipPath>
						<g class="st18">
							<path class="st19" d="M125.1,114.5l-1.2,1.8l-3.6,5.2l-2.6,3.8c-0.9,1.4-1.9,2.9-3,4.6c-2.1,3.3-4.6,7.2-7.1,11.6
								c-6.2,10.6-11.7,21.6-16.5,32.8c-6.2,14.5-11.1,29.6-14.6,45c-1.9,8.6-3.1,17.3-3.6,26.1c-0.2,4.4-0.1,8.8,0.4,13.2
								c0.4,4.1,1.4,8.1,3.1,11.8c0.7,1.6,1.7,3,2.8,4.3c0.5,0.6,1.1,1.1,1.7,1.6c0.3,0.2,0.6,0.4,0.9,0.6l-0.1-0.1l0.2,0.1l0.4,0.2
								l0.4,0.2l0.2,0.1H83c0.3,0.1,1.2,0.5,1.9,0.7c0.4,0.1,0.8,0.2,1.2,0.3s0.8,0.2,1.2,0.2c1.8,0.2,3.7,0.2,5.6-0.1
								c4.4-0.7,8.6-1.9,12.7-3.8c4.5-2,8.8-4.3,13-7c8.8-5.7,17.2-12.2,24.9-19.3c8-7.3,15.8-15.1,23.2-23.4
								c15.1-16.9,28.8-35,41-54c12.3-18.9,22.9-38.8,31.7-59.5c4.3-10.1,8.1-20.4,11.2-30.4c3.1-9.6,5.5-19.4,7.2-29.4
								c0.7-4.4,1.2-8.9,1.3-13.4c0.1-3.6-0.2-7.2-1-10.7c-0.3-1.1-0.6-2.1-1.1-3.2c-0.2-0.5-0.5-1-0.9-1.4l-0.1-0.1v-0.1l0,0
								c0.1,0.1,0.2,0.2,0.4,0.2l-0.8-0.5l-0.2-0.1h-0.1h0.1c0.1,0,0.1,0.1,0.2,0.1l-0.1-0.1c-0.1-0.1-0.2-0.1-0.3-0.2
								c-0.8-0.4-1.6-0.6-2.5-0.7c-3.1-0.3-6.3,0-9.3,0.7c-1.8,0.4-3.7,0.9-5.6,1.5s-3.8,1.3-5.7,2s-3.8,1.6-5.7,2.5
								s-3.8,1.8-5.7,2.7c-3.8,1.9-7.5,3.9-11.1,6c-7.2,4.2-14,8.7-20.4,13.3S177,59.4,171.6,64c-9.3,7.9-18.1,16.4-26.3,25.5
								c-6.8,7.6-11.8,13.9-15.1,18.2c-1.7,2.2-2.9,3.9-3.7,5L125.1,114.5L125.1,114.5L125.1,114.5z M122.2,112.5l4.6-7.1
								c3.1-4.6,7.5-11.3,13.4-19.9s13.1-18.8,21.9-30.5c4.4-5.8,9.2-12,14.6-18.3c5.7-6.7,11.8-13.1,18.1-19.2
								c3.4-3.2,7-6.4,10.9-9.5c1.9-1.5,4-3.1,6.1-4.6s4.3-2.9,6.6-4.3c4.8-3,10-5.6,15.3-7.6c6.4-2.5,13.1-3.9,19.9-4
								c4.2,0,8.4,0.6,12.4,1.8c1.1,0.4,2.2,0.7,3.2,1.2l1.6,0.6c0.6,0.3,1.3,0.6,1.9,1l1,0.5l0.6,0.3l0.8,0.5l0.8,0.5l0.4,0.3
								l0.7,0.5c0.5,0.3,1,0.7,1.4,1.1c3.6,2.9,6.7,6.4,9.2,10.4c2.2,3.5,3.9,7.3,5.1,11.3c2,6.8,3,13.9,2.9,21
								c-0.1,6.4-0.6,12.7-1.7,19c-4.2,24.5-13.7,46.7-24.8,68.1c-11.3,21.3-24.1,41.8-38.2,61.3c-14,19.5-29.5,37.9-46.4,55
								c-8.3,8.4-17.1,16.4-26.4,23.8c-9.2,7.4-19,14.1-29.3,19.8c-5.2,2.9-10.6,5.4-16.2,7.5c-5.9,2.2-12,3.6-18.3,4.1
								c-3.4,0.2-6.8,0-10.2-0.6c-0.9-0.1-1.7-0.4-2.6-0.6s-1.7-0.6-2.5-0.8s-1.7-0.7-2.5-1.1c-0.9-0.4-1.8-0.9-2.7-1.4l-0.3-0.2
								l-0.2-0.1l-0.4-0.3l-1.1-0.8c-0.7-0.6-1.5-1.1-2.1-1.7c-1.3-1.2-2.6-2.5-3.7-3.9c-2-2.7-3.7-5.6-4.9-8.8
								c-2-5.5-3-11.3-3-17.2c-0.1-5.2,0.3-10.5,1.2-15.6c1.6-9.4,4.1-18.6,7.3-27.5c3-8.5,6.4-16.4,9.8-23.7s6.9-14.2,10.3-20.6
								c6.7-12.7,13-23.5,18.3-32.3c2.7-4.4,5-8.3,7.2-11.7l5.4-8.6l3.4-5.3L122.2,112.5L122.2,112.5L122.2,112.5z"/>
						</g>
						<g class="st18">
							<path class="st19" d="M124.6,178.7l1.2,1.8l3.5,5.2l2.6,3.8c1,1.4,2,2.9,3.2,4.5c2.3,3.2,5,6.9,8.2,10.9
								c7.6,9.7,15.8,18.9,24.5,27.5c11.2,11.2,23.5,21.3,36.6,30.2c7.3,5,15,9.3,23,13c4,1.9,8.2,3.4,12.5,4.5
								c3.9,1.1,8,1.6,12.1,1.4c1.7-0.1,3.4-0.5,5-1.1c0.7-0.3,1.4-0.6,2.1-1c0.3-0.2,0.6-0.4,0.9-0.6l-0.1,0.1l0.2-0.1l0.4-0.3
								l0.4-0.3l0.2-0.1l0.1-0.1c0.2-0.3,0.9-0.9,1.3-1.5c0.2-0.3,0.5-0.6,0.7-1s0.4-0.7,0.6-1.1c0.9-1.6,1.5-3.4,2-5.2
								c1-4.3,1.4-8.8,1.2-13.2c-0.2-4.9-0.8-9.9-1.7-14.7c-2.1-10.4-5-20.5-8.8-30.4c-3.8-10.1-8.2-20.3-13.2-30.3
								c-10.2-20.3-21.9-39.7-35.1-58.1l-2.6-3.6l-2.5-3.4c-1.7-2.3-3.4-4.5-5.2-6.8s-3.5-4.5-5.3-6.7s-3.6-4.4-5.4-6.5
								c-7.3-8.6-14.9-16.9-22.8-24.6s-16-15-24.2-21.7c-7.8-6.4-16.1-12.3-24.8-17.5c-3.9-2.3-7.9-4.4-12-6.1
								c-3.3-1.4-6.8-2.4-10.3-3c-1.1-0.1-2.3-0.2-3.4-0.1c-0.6,0-1.1,0.1-1.7,0.3c0,0-0.1,0-0.1,0.1h-0.1l0,0
								c0.1-0.1,0.2-0.2,0.4-0.3l-0.8,0.5l-0.2,0.1H87l0.1-0.1c0.1,0,0.1-0.1,0.1-0.2L87,23c-0.1,0-0.2,0.2-0.3,0.2
								c-0.7,0.6-1.2,1.3-1.6,2.1c-1.4,2.8-2.4,5.9-2.8,9c-0.3,1.8-0.5,3.8-0.7,5.8s-0.2,4-0.2,6.1s0,4.2,0.2,6.2
								c0.2,2,0.2,4.2,0.4,6.3c0.4,4.2,0.9,8.4,1.5,12.5c1.2,8.3,2.9,16.3,4.9,23.9s4.1,14.8,6.3,21.5c3.9,11.6,8.6,23,14,34
								c4.5,9.2,8.6,16.1,11.4,20.8c1.4,2.4,2.5,4.1,3.3,5.3L124.6,178.7L124.6,178.7L124.6,178.7z M121.7,180.7l-4.8-7
								c-3.2-4.5-7.8-11.2-13.6-19.8S90.6,134.8,83,122.3c-3.8-6.3-7.8-13-11.6-20.4c-4.1-7.8-7.9-15.8-11.2-24
								c-1.7-4.3-3.4-8.9-4.8-13.7c-0.7-2.4-1.4-4.8-2-7.3s-1.1-5.1-1.6-7.8c-1-5.6-1.5-11.3-1.4-17.1c0-6.8,1.3-13.6,3.7-20
								c1.5-3.9,3.6-7.6,6.2-10.9c0.7-0.9,1.4-1.8,2.3-2.6l1.2-1.2c0.5-0.5,1.1-1,1.6-1.4l0.8-0.7l0.5-0.4l0.8-0.6l0.8-0.5l0.4-0.2
								L69.5-7c0.5-0.3,1-0.7,1.5-0.9c4-2.3,8.4-3.9,13-4.7c4-0.8,8.2-1,12.3-0.6c7.1,0.6,14,2.3,20.6,5c5.9,2.4,11.7,5.3,17.1,8.7
								c21.2,13,38.5,29.9,54.3,48.1c7.9,9.1,15.4,18.7,22.5,28.4c1.8,2.4,3.5,4.9,5.3,7.4c1.7,2.5,3.5,4.9,5.2,7.4s3.4,5,5.1,7.5
								l2.5,3.8l2.4,3.7l2.4,3.9l2.4,3.9c1.6,2.6,3.1,5.2,4.7,7.8c3.1,5.2,6,10.4,8.9,15.8c5.7,10.6,11,21.4,15.8,32.3
								c4.8,10.9,8.9,22,12.4,33.3s6.1,22.8,7.7,34.5c0.8,5.9,1.1,11.9,1,17.9c-0.1,6.3-1.1,12.5-3,18.5c-1.1,3.2-2.5,6.3-4.3,9.2
								c-0.5,0.8-1,1.5-1.5,2.2s-1.1,1.4-1.7,2.1s-1.2,1.3-1.9,2c-0.7,0.7-1.5,1.4-2.3,2l-0.3,0.2l-0.2,0.1l-0.4,0.3l-1.1,0.8
								c-0.8,0.5-1.6,1-2.4,1.3c-1.6,0.8-3.3,1.5-5,2c-3.2,0.9-6.6,1.4-9.9,1.3c-5.9-0.2-11.7-1.4-17.1-3.5
								c-4.9-1.9-9.6-4.2-14.1-6.9c-4.2-2.5-8.3-5.3-12.2-8.3c-3.8-2.9-7.4-5.8-10.8-8.8c-6.8-5.9-12.9-12-18.5-17.9
								s-10.7-11.7-15.4-17.1c-9.4-11-17.1-20.8-23.4-29c-3.1-4.1-5.9-7.8-8.3-11l-6-8.2l-3.6-5.1L121.7,180.7L121.7,180.7
								L121.7,180.7z"/>
						</g>
					</g>
				</g>
				<g>
					<defs>
						<polyline id="SVGID_23_" points="128.2,102.5 214.7,102.5 242.2,145.7 171.5,220.5 100.7,145.7 128.2,102.5 						"/>
					</defs>
					<defs>
						<polygon id="SVGID_24_" points="139.2,102 120.5,102.3 223.8,-30.3 329.8,24.3 127.2,326.3 22.5,257.7 97.2,142.1 
							110.2,155.8 						"/>
					</defs>
					<clipPath id="SVGID_25_">
						<use xlink:href="#SVGID_23_"  style="overflow:visible;"/>
					</clipPath>
					<clipPath id="SVGID_26_" class="st20">
						<use xlink:href="#SVGID_24_"  style="overflow:visible;"/>
					</clipPath>
					<path class="st21" d="M171.5,205h2.1h6.3c5.5-0.1,13.6-0.2,23.8-1c5.1-0.4,10.8-0.9,16.9-1.5s12.8-1.6,19.8-2.8
						c15.8-2.5,31.3-6.4,46.5-11.6c8.6-2.9,16.9-6.6,24.9-10.9c4.1-2.3,8.1-4.9,11.8-7.8c3.8-2.9,7.1-6.5,9.7-10.4
						c1.3-2,2.2-4.2,2.9-6.4c0.6-2.3,0.8-4.6,0.6-7c-0.2-2.3-0.9-4.6-1.9-6.8c-1.1-2.2-2.4-4.3-4-6.2c-3.4-3.9-7.3-7.3-11.6-10.1
						c-4.5-2.9-9.1-5.5-14-7.7c-10.1-4.5-20.5-8.2-31.2-11c-11-2.9-22.1-5.2-33.3-6.9c-23-3.4-46.1-5-69.3-4.8
						c-23.2,0.1-46.3,2-69.2,5.8c-11.2,1.9-22.2,4.3-33.1,7.3c-10.6,2.9-20.8,6.6-30.8,11.2c-4.8,2.2-9.3,4.8-13.7,7.7
						c-4.1,2.7-7.9,6-11.2,9.8c-3,3.6-5.1,7.7-5.4,11.9c0,0.3,0,0.5,0,0.8v0.4v0.2c0,0.1,0-0.1,0,0.1c0,0.6,0,1.4,0.1,1.8l0.1,0.7
						l0.1,0.8c0.1,0.5,0.2,1,0.3,1.5c0.6,2.1,1.5,4.1,2.7,5.9c2.5,3.8,5.6,7.2,9.2,10c3.6,2.9,7.5,5.5,11.5,7.8
						c7.9,4.3,16.1,8,24.5,11.1c15,5.3,30.4,9.3,46.1,12.1c7,1.3,13.6,2.3,19.7,3.1s11.8,1.3,16.9,1.8s9.7,0.7,13.7,0.9
						s7.4,0.3,10.1,0.4l6.3,0.1L171.5,205z M171.5,205.8H163c-5.5,0-13.6-0.2-23.9-0.8c-5.1-0.3-10.8-0.6-17-1.2
						c-6.2-0.6-12.9-1.2-20-2.1s-14.7-2.1-22.6-3.7s-16.2-3.6-24.7-6.1c-9-2.6-17.7-6.1-26-10.3c-4.5-2.3-8.8-5-12.8-8
						c-4.4-3.2-8.2-7.1-11.2-11.5c-1.6-2.4-2.9-5.1-3.7-7.9c-0.2-0.7-0.4-1.4-0.5-2.2l-0.2-1.1c-0.1-0.4-0.1-0.8-0.2-1.2
						c-0.2-1-0.2-1.5-0.2-2.2c0,0,0-0.3,0-0.4v-0.3v-0.6c0-0.4,0-0.8,0.1-1.2c0.3-3.1,1.1-6.1,2.3-8.9c1.3-2.7,2.8-5.2,4.7-7.6
						c3.7-4.4,8-8.3,12.8-11.4c4.7-3.2,9.7-5.9,14.8-8.3c10.4-4.7,21.2-8.5,32.2-11.4c11.2-3,22.5-5.3,34-7
						c23.3-3.4,46.8-5,70.4-4.8c23.5,0.1,47,2,70.2,5.8c11.4,1.9,22.7,4.3,33.8,7.4c10.9,3,21.6,6.9,31.8,11.6
						c5.1,2.4,10,5.2,14.6,8.3c4.6,3.1,8.8,6.8,12.4,11.1c3.5,4.4,6.2,9.5,6.6,15.4c0,0.4,0,0.7,0,1v0.7c0,0.1,0,0.3,0,0.3
						c0,0.7,0,1.4-0.1,2.1c-0.2,1.4-0.4,2.8-0.8,4.1c-0.8,2.6-2,5.1-3.5,7.4c-2.9,4.3-6.6,8-10.7,11.1c-3.9,3-8.1,5.6-12.5,7.9
						c-8.2,4.2-16.8,7.7-25.6,10.4c-8.4,2.7-16.7,4.7-24.5,6.4s-15.4,3-22.5,4.1s-13.8,1.8-19.9,2.4s-11.8,1.1-17,1.4
						c-10.3,0.7-18.3,0.9-23.8,1l-6.3,0.1L171.5,205.8z"/>
				</g>
				<g>
					<defs>
						<polyline id="SVGID_27_" points="128.2,102.5 214.7,102.5 242.2,145.7 171.5,220.5 100.7,145.7 128.2,102.5 						"/>
					</defs>
					<defs>
						<polygon id="SVGID_28_" points="139.2,102 120.5,102.3 223.8,-30.3 329.8,24.3 127.2,326.3 22.5,257.7 97.2,142.1 
							110.2,155.8 						"/>
					</defs>
					<clipPath id="SVGID_29_">
						<use xlink:href="#SVGID_27_"  style="overflow:visible;"/>
					</clipPath>
					<clipPath id="SVGID_30_" class="st22">
						<use xlink:href="#SVGID_28_"  style="overflow:visible;"/>
					</clipPath>
					<g class="st23">
						<path class="st1" d="M124,113.7l-1.2,1.8l-3.5,5.2c-3,4.6-7.4,11.3-12.6,20.1c-2.6,4.4-5.4,9.4-8.3,14.8s-5.9,11.4-8.9,17.9
							c-6.8,14.4-12.4,29.4-16.7,44.7c-2.4,8.7-4.1,17.6-5.1,26.7c-0.5,4.7-0.6,9.4-0.2,14.1c0.3,4.8,1.3,9.5,3.1,13.9
							c0.9,2.2,2.1,4.2,3.6,6s3.3,3.3,5.4,4.5c2.1,1.1,4.3,1.9,6.6,2.2c2.4,0.4,4.9,0.4,7.3,0.2c5.1-0.6,10.1-1.9,14.8-3.9
							c4.9-2,9.7-4.4,14.3-7.2c9.4-5.7,18.3-12.3,26.6-19.5c8.6-7.4,16.7-15.3,24.4-23.6c15.7-17,30.1-35.2,43.1-54.4
							c13-19.1,24.4-39.3,34.2-60.2c4.8-10.2,9-20.7,12.7-31.4c3.6-10.3,6.4-20.9,8.2-31.7c0.9-5.2,1.4-10.4,1.5-15.6
							c0.1-4.9-0.5-9.9-1.7-14.7c-1.3-4.5-3.5-8.5-6.7-11.2c-0.2-0.2-0.4-0.3-0.6-0.5l-0.3-0.2l-0.1-0.1h-0.1
							c-0.5-0.3-1.1-0.8-1.5-0.9l-0.6-0.4L261,10c-0.5-0.2-1-0.4-1.5-0.6c-2.1-0.7-4.2-1-6.4-1.1c-4.6-0.1-9.1,0.6-13.4,2
							c-4.4,1.3-8.7,3.1-12.9,5.1c-8,4-15.7,8.7-22.9,14c-7,5.1-13.5,10.4-19.5,15.6s-11.5,10.5-16.5,15.6s-9.6,9.9-13.6,14.5
							s-7.7,8.9-11,12.9s-6,7.6-8.4,10.7s-4.4,5.9-6,8.1l-3.6,5.1L124,113.7z M123.3,113.3l1.2-1.8l3.6-5.2
							c3.1-4.5,7.9-11.1,14.1-19.2c3.1-4.1,6.6-8.6,10.6-13.3s8.3-9.9,13.1-15.2c10.7-12.1,22.3-23.3,34.8-33.4
							c7.2-5.9,15-11.2,23.1-15.7c4.4-2.4,9-4.4,13.8-6c5.1-1.8,10.4-2.7,15.8-2.7c2.9,0,5.8,0.5,8.6,1.3c0.7,0.3,1.4,0.5,2.1,0.8
							l1,0.5c0.4,0.2,0.7,0.4,1.1,0.6c0.8,0.4,1.2,0.7,1.8,1.1l0.3,0.2l0.2,0.2l0.5,0.3c0.3,0.2,0.6,0.4,0.9,0.7
							c2.4,1.9,4.4,4.3,6,6.9c1.5,2.5,2.7,5.3,3.5,8.1c1.5,5.5,2.3,11.3,2.1,17c-0.1,5.7-0.6,11.3-1.5,16.9c-2,11.2-4.9,22.3-8.8,33
							c-3.9,10.9-8.4,21.6-13.5,31.9c-10.4,21.1-22.3,41.4-35.8,60.6c-13.3,19.3-28.1,37.5-44.3,54.5c-8,8.3-16.4,16.2-25.1,23.7
							c-8.6,7.3-17.8,13.9-27.6,19.7c-4.8,2.8-9.8,5.3-15,7.3c-5.2,2.1-10.6,3.4-16.1,4c-5.5,0.4-11.3-0.3-16.4-3.2
							c-0.3-0.2-0.6-0.4-0.9-0.5l-0.4-0.3l-0.2-0.1l-0.3-0.2c-0.6-0.4-1.1-0.8-1.7-1.3c-1.1-0.9-2-1.9-2.9-3c-1.7-2.1-3.1-4.5-4.1-7
							c-1.9-4.8-2.9-9.9-3.1-15.1c-0.2-4.9,0-9.8,0.6-14.7c1.2-9.2,3.1-18.2,5.9-27c2.6-8.4,5.5-16.4,8.6-23.8s6.3-14.4,9.4-20.8
							s6.2-12.4,9.2-17.8s5.8-10.4,8.4-14.8c5.2-8.8,9.6-15.6,12.6-20.2l3.5-5.2L123.3,113.3z"/>
					</g>
				</g>
			</g>
			<g class="st12">
				<g>
					<defs>
						<polygon id="SVGID_31_" points="106.5,136.2 95.9,152.7 43.2,10.3 119.8,-11.7 321.2,205 255.2,321 153.2,233 100.8,146.1 
							112.7,158.5 						"/>
					</defs>
					<clipPath id="SVGID_32_">
						<use xlink:href="#SVGID_31_"  style="overflow:visible;"/>
					</clipPath>
					<g class="st24">
						<path class="st1" d="M123.5,179.5l1.2,1.8l3.6,5.2c3.1,4.5,7.8,11.1,14.1,19.2c3.2,4,6.7,8.5,10.7,13.2s8.5,9.7,13.4,14.9
							c10.9,11.7,22.8,22.4,35.5,32.1c7.2,5.5,14.9,10.4,23,14.6c4.2,2.2,8.6,4,13.1,5.4c4.5,1.5,9.3,2.3,14.1,2.2
							c2.4-0.1,4.7-0.5,6.9-1.2c2.2-0.8,4.3-1.9,6.1-3.4c1.8-1.5,3.3-3.3,4.5-5.3c1.2-2.1,2.2-4.4,2.9-6.8c1.3-5,2-10.1,1.9-15.3
							c-0.1-5.3-0.5-10.7-1.4-15.9c-1.9-10.9-4.7-21.6-8.3-32c-3.8-10.7-8.1-21.2-13-31.5c-10-21-21.6-41.1-34.8-60.2
							c-13-19.2-27.6-37.3-43.5-54.2c-7.8-8.2-16-16-24.6-23.4c-8.3-7.2-17.1-13.6-26.5-19.2c-4.5-2.7-9.2-5.1-14-7.1
							c-4.6-1.9-9.4-3.2-14.3-3.8c-4.7-0.5-9.2,0.1-12.9,2.2c-0.2,0.1-0.4,0.3-0.7,0.4l-0.3,0.2l0,0h-0.1c-0.5,0.4-1.1,0.8-1.4,1
							L78.2,13l-0.6,0.6c-0.4,0.3-0.7,0.8-1.1,1.1c-1.4,1.7-2.5,3.5-3.4,5.5c-1.8,4.2-2.8,8.7-3.1,13.2c-0.4,4.6-0.4,9.2,0,13.9
							c0.8,8.9,2.3,17.8,4.5,26.5c4,15.4,9.3,30.5,15.7,45c2.9,6.5,5.7,12.6,8.5,18.1s5.5,10.5,8,15s4.8,8.4,6.9,11.8
							s3.9,6.3,5.3,8.6l3.4,5.3L123.5,179.5z M122.8,179.9l-1.2-1.8l-3.5-5.2c-3.1-4.6-7.4-11.4-12.7-20.2
							c-2.7-4.4-5.5-9.3-8.5-14.8s-6.2-11.3-9.4-17.8s-6.4-13.4-9.5-20.8s-6.1-15.4-8.7-23.9c-2.8-8.9-4.8-18.1-6-27.3
							c-0.6-5-0.8-10-0.5-15c0.2-5.4,1.4-10.7,3.3-15.7c1.1-2.7,2.6-5.2,4.4-7.5c0.5-0.6,1-1.2,1.5-1.7l0.8-0.8
							c0.3-0.3,0.6-0.5,0.9-0.8c0.7-0.6,1.1-0.9,1.7-1.3l0.3-0.2l0.2-0.2l0.5-0.3c0.3-0.2,0.7-0.4,1-0.6c2.7-1.5,5.6-2.5,8.7-3
							C89,0.5,92,0.4,95,0.7c5.7,0.6,11.3,2,16.7,4.3c5.3,2.1,10.3,4.6,15.2,7.5c9.7,6,18.9,12.8,27.4,20.4
							c8.7,7.6,17,15.8,24.8,24.3c15.8,17.4,30.3,36,43.3,55.7c13.1,19.6,24.6,40.1,34.5,61.5c4.8,10.5,9.1,21.2,12.8,32.2
							c3.6,10.7,6.3,21.7,8.1,32.9c0.8,5.5,1.3,11.1,1.2,16.7c0,5.6-0.7,11.1-2.3,16.5c-1.7,5.3-4.5,10.5-9,14.1
							c-0.3,0.3-0.5,0.4-0.8,0.6l-0.4,0.3l-0.2,0.1L266,288c-0.6,0.4-1.2,0.8-1.8,1.1c-1.2,0.6-2.5,1.2-3.9,1.6
							c-2.6,0.8-5.3,1.2-8,1.2c-5.2,0-10.3-1-15.2-2.7c-4.7-1.6-9.2-3.6-13.5-5.9c-8.1-4.5-15.8-9.6-23-15.4
							c-6.9-5.5-13.2-11.2-19-16.8s-11.1-11.1-15.9-16.4s-9.2-10.4-13.1-15.2s-7.5-9.2-10.7-13.3c-6.3-8.1-11-14.7-14.2-19.2
							l-3.6-5.2L122.8,179.9z"/>
					</g>
				</g>
			</g>
		</g>
	</g>
</g>
</svg>
