<?xml version="1.0" standalone="no"?>
<!DOCTYPE svg PUBLIC "-//W3C//DTD SVG 20010904//EN"
 "http://www.w3.org/TR/2001/REC-SVG-20010904/DTD/svg10.dtd">
<svg version="1.0" xmlns="http://www.w3.org/2000/svg"
 width="16.000000pt" height="16.000000pt" viewBox="0 0 16.000000 16.000000"
 preserveAspectRatio="xMidYMid meet">
<metadata>
Created by potrace 1.11, written by Peter Selinger 2001-2013
</metadata>
<g transform="translate(0.000000,16.000000) scale(0.001047,-0.001047)"
fill="#000000" stroke="none">
<path d="M4416 14459 c-26 -4 -65 -9 -85 -10 -20 -2 -40 -5 -46 -8 -5 -3 -21
-7 -35 -9 -14 -2 -49 -10 -79 -19 -29 -8 -59 -16 -65 -18 -6 -1 -19 -5 -28 -8
-21 -8 -51 -18 -58 -19 -7 -2 -96 -45 -165 -80 -72 -37 -192 -118 -234 -159
-17 -16 -33 -29 -37 -29 -5 0 -50 -46 -125 -126 -43 -48 -133 -171 -176 -241
-52 -85 -161 -317 -166 -353 -2 -8 -5 -19 -9 -25 -8 -13 -60 -175 -63 -195 -1
-8 -5 -25 -9 -37 -4 -12 -9 -32 -12 -45 -5 -23 -19 -93 -28 -133 -7 -38 -20
-110 -22 -130 -1 -11 -5 -40 -9 -65 -4 -25 -9 -61 -10 -80 -2 -19 -5 -55 -8
-80 -9 -71 -20 -314 -20 -430 0 -123 12 -418 19 -472 3 -21 7 -66 9 -101 2
-34 6 -82 10 -107 4 -25 8 -61 10 -80 1 -19 5 -51 9 -71 4 -20 9 -56 11 -80 2
-24 6 -57 9 -74 6 -37 20 -127 21 -140 1 -5 5 -28 10 -50 5 -22 9 -47 10 -55
2 -18 11 -65 49 -260 13 -65 47 -220 51 -232 2 -7 6 -24 9 -38 2 -14 11 -54
20 -90 9 -36 18 -73 20 -82 3 -13 -9 -21 -53 -33 -31 -9 -78 -23 -106 -31 -27
-9 -54 -17 -60 -19 -5 -1 -17 -5 -25 -8 -22 -8 -119 -38 -133 -41 -7 -2 -21
-6 -32 -10 -11 -5 -31 -12 -45 -16 -14 -4 -34 -11 -45 -15 -11 -3 -21 -6 -23
-6 -1 1 -19 -6 -40 -15 -20 -8 -77 -29 -126 -46 -48 -16 -105 -37 -125 -46
-20 -9 -38 -16 -41 -17 -8 -1 -123 -46 -155 -59 -16 -8 -57 -25 -91 -40 -33
-14 -78 -33 -100 -43 -21 -9 -41 -17 -44 -18 -3 0 -32 -14 -65 -30 -33 -16
-62 -29 -65 -30 -25 -6 -403 -205 -429 -226 -10 -8 -22 -15 -28 -16 -30 -6
-391 -244 -434 -287 -9 -9 -21 -16 -27 -16 -5 0 -12 -4 -14 -8 -2 -4 -23 -23
-48 -42 -53 -42 -48 -37 -146 -125 -97 -88 -162 -153 -228 -230 -28 -33 -57
-66 -64 -74 -53 -56 -160 -217 -217 -326 -64 -122 -144 -325 -128 -325 3 0 1
-6 -5 -12 -5 -7 -12 -29 -15 -48 -3 -19 -12 -73 -20 -120 -10 -57 -14 -136
-12 -230 4 -167 15 -246 51 -369 9 -31 17 -60 18 -66 1 -5 4 -14 7 -20 3 -5
11 -29 19 -52 7 -24 18 -43 23 -43 6 0 8 -3 4 -6 -5 -5 99 -221 113 -234 3 -3
18 -25 34 -49 16 -25 33 -50 37 -55 5 -6 32 -42 61 -81 98 -131 281 -317 434
-440 27 -22 51 -43 52 -47 2 -5 8 -8 13 -8 5 0 19 -9 31 -19 13 -11 34 -29 47
-40 13 -12 27 -21 31 -21 3 0 15 -8 26 -17 11 -10 27 -22 36 -28 9 -5 37 -25
62 -42 26 -18 49 -33 51 -33 2 0 25 -15 51 -32 48 -34 61 -42 209 -127 159
-90 631 -321 658 -321 7 0 17 -4 22 -8 9 -8 144 -66 155 -67 3 0 15 -6 28 -13
12 -7 22 -10 22 -7 0 3 10 1 21 -6 48 -25 519 -191 519 -182 0 3 6 1 13 -4 6
-5 32 -15 57 -22 25 -7 56 -17 70 -22 43 -14 174 -51 190 -54 17 -2 22 -56 9
-91 -4 -11 -10 -34 -13 -50 -3 -16 -10 -49 -16 -74 -7 -25 -14 -56 -16 -70 -3
-14 -12 -54 -20 -90 -9 -36 -17 -80 -19 -98 -2 -18 -6 -36 -9 -40 -4 -7 -34
-164 -41 -212 -1 -8 -5 -35 -10 -60 -4 -25 -9 -52 -10 -60 -1 -8 -5 -31 -8
-50 -9 -51 -18 -110 -22 -150 -2 -19 -6 -48 -9 -65 -3 -16 -8 -57 -11 -90 -4
-33 -8 -71 -11 -85 -2 -14 -6 -59 -9 -100 -3 -41 -7 -91 -10 -110 -6 -54 -18
-353 -19 -465 0 -113 14 -399 21 -430 2 -11 6 -42 8 -70 2 -27 6 -67 9 -87 3
-21 8 -53 11 -70 10 -66 25 -145 45 -233 11 -49 23 -101 26 -114 3 -14 7 -28
10 -33 3 -4 7 -16 9 -25 6 -34 65 -203 86 -251 131 -289 272 -489 460 -648 75
-64 206 -153 226 -154 6 0 13 -3 15 -7 5 -12 123 -68 163 -79 6 -1 28 -10 50
-19 22 -10 47 -18 55 -19 8 -1 35 -8 60 -15 25 -7 56 -15 70 -17 14 -3 39 -7
55 -11 17 -4 37 -7 45 -8 8 -1 60 -5 115 -10 55 -4 116 -8 135 -8 51 1 232 15
255 19 11 3 36 7 55 10 19 3 46 7 60 10 14 3 39 7 55 10 17 3 55 12 85 20 30
8 66 17 79 20 14 3 29 8 35 12 6 3 19 5 29 4 9 -2 17 2 17 7 0 6 8 11 17 11
18 0 151 43 198 65 42 19 88 38 100 40 6 2 51 22 100 46 50 23 92 43 95 44 16
4 69 32 93 48 15 10 27 16 27 13 0 -6 271 150 390 225 199 125 605 421 706
514 6 5 33 28 60 50 26 22 56 48 66 58 10 9 20 17 23 17 3 0 13 8 23 18 10 9
38 34 62 55 80 69 168 147 218 195 27 26 79 75 116 110 36 34 71 62 77 62 6 0
23 -12 38 -28 33 -32 228 -213 280 -259 20 -18 43 -39 51 -46 8 -8 49 -43 90
-78 42 -35 82 -70 90 -77 8 -7 26 -22 40 -33 14 -11 36 -30 50 -42 14 -12 43
-35 65 -51 22 -17 42 -33 45 -36 7 -10 233 -178 315 -235 39 -27 72 -52 75
-55 3 -3 48 -33 100 -67 52 -34 100 -66 105 -71 6 -5 15 -11 20 -13 6 -2 61
-34 123 -72 62 -37 117 -67 122 -67 6 0 10 -4 10 -9 0 -5 11 -12 25 -15 14 -4
25 -11 25 -16 0 -6 7 -10 16 -10 9 0 29 -9 45 -21 16 -11 29 -17 29 -12 0 4 4
3 8 -3 4 -5 25 -18 47 -28 22 -11 63 -30 90 -43 79 -39 236 -103 250 -103 7 0
15 -4 17 -8 4 -9 288 -102 358 -117 14 -2 45 -9 70 -15 25 -6 63 -13 85 -15
22 -3 47 -8 55 -11 17 -6 66 -11 205 -22 190 -14 448 18 603 75 37 13 72 25
79 26 7 2 16 6 19 10 4 4 16 7 26 7 10 0 18 5 18 10 0 6 6 10 13 10 27 0 197
101 296 177 52 39 208 202 254 263 26 36 51 70 55 75 33 42 142 243 142 262 0
6 3 13 8 15 6 2 65 139 68 158 0 3 3 12 7 20 15 38 40 117 42 137 2 12 6 27
10 32 3 6 8 19 10 28 3 10 9 36 15 58 5 22 13 56 16 75 3 19 8 38 10 41 2 4 6
24 10 45 3 22 7 50 10 64 2 14 6 40 9 58 3 17 8 49 11 70 3 20 7 57 9 82 3 25
7 61 9 80 8 53 20 312 20 425 0 116 -12 414 -19 465 -3 19 -7 71 -10 115 -3
44 -7 87 -10 95 -2 8 -7 47 -10 85 -3 39 -8 80 -11 92 -4 12 -7 39 -9 60 -3
39 -10 92 -22 153 -4 19 -7 44 -8 55 -1 11 -5 38 -10 60 -5 22 -9 49 -10 60
-1 11 -4 29 -8 40 -3 11 -8 36 -11 55 -6 37 -22 120 -41 210 -3 14 -7 34 -9
45 -2 11 -18 81 -36 155 -18 74 -33 143 -34 152 -1 10 -5 20 -8 24 -20 19 35
49 127 68 6 2 44 13 85 26 41 13 82 25 90 27 19 5 31 8 50 16 14 5 120 40 130
42 3 1 13 5 22 9 9 4 22 9 30 10 7 2 20 6 28 9 8 4 85 32 170 62 165 60 274
103 355 140 28 12 52 22 55 22 3 0 16 6 30 13 14 8 28 14 32 15 3 0 10 3 14 8
4 4 16 7 26 7 10 0 18 5 18 10 0 6 5 10 11 10 5 0 48 18 95 40 46 22 88 41 92
42 4 2 52 27 107 56 55 28 103 52 107 52 5 0 8 5 8 10 0 6 5 10 11 10 15 0
193 101 197 112 2 4 12 8 23 8 10 0 19 4 19 9 0 4 20 19 45 32 25 13 45 27 45
30 0 4 14 12 30 19 17 7 30 16 30 20 0 4 11 12 24 18 14 6 33 18 43 26 10 8
61 46 113 85 52 39 107 81 121 93 14 13 50 43 79 68 52 43 210 199 275 271 83
92 255 339 255 367 0 6 5 12 10 12 6 0 10 5 10 11 0 5 18 47 39 92 56 116 99
259 127 417 9 49 9 357 0 405 -4 22 -10 54 -12 70 -69 422 -408 896 -899 1259
-49 36 -95 70 -100 74 -6 5 -24 17 -40 28 -17 10 -34 22 -40 27 -5 4 -39 27
-75 49 -36 23 -84 54 -108 70 -24 15 -45 28 -47 28 -2 0 -42 22 -90 50 -48 27
-90 50 -95 50 -4 0 -13 7 -20 15 -7 9 -15 13 -18 11 -2 -3 -22 7 -45 21 -22
14 -46 26 -52 27 -7 1 -24 9 -38 19 -15 9 -28 17 -30 17 -3 0 -61 27 -130 60
-70 33 -128 60 -130 60 -3 0 -31 12 -63 27 -33 15 -62 27 -66 27 -3 1 -10 4
-14 9 -4 4 -16 7 -26 7 -10 0 -18 4 -18 8 0 5 -6 9 -12 9 -7 1 -78 27 -158 58
-80 32 -156 61 -170 65 -14 5 -83 29 -155 55 -71 25 -138 48 -148 50 -32 7
-61 16 -82 25 -18 7 -132 43 -145 45 -3 1 -32 9 -65 19 -33 9 -67 19 -77 22
-13 4 -15 11 -8 37 5 18 11 43 14 57 8 39 26 119 53 230 3 14 8 34 9 45 2 11
11 52 19 90 21 99 26 127 29 155 2 14 7 36 11 49 4 13 8 38 9 55 2 17 6 40 9
51 4 11 9 36 11 55 6 46 15 107 22 150 3 19 7 44 9 55 5 32 17 127 20 163 1
18 6 54 10 80 4 26 9 74 10 107 2 33 6 78 9 100 7 59 19 354 19 475 1 117 -12
378 -19 425 -3 17 -7 53 -9 80 -2 28 -6 66 -10 85 -6 36 -8 46 -20 140 -4 30
-9 58 -12 63 -2 4 -8 28 -13 55 -5 26 -14 65 -20 87 -6 22 -13 51 -16 65 -9
48 -66 219 -95 285 -59 138 -155 324 -178 345 -4 3 -19 25 -36 50 -97 147
-314 351 -444 417 -20 10 -38 21 -41 24 -17 19 -270 124 -270 112 0 -3 -6 -1
-13 5 -12 10 -50 20 -104 27 -12 2 -26 5 -30 8 -38 24 -422 43 -518 26 -22 -4
-65 -10 -95 -13 -136 -16 -309 -58 -485 -118 -66 -23 -143 -52 -172 -64 -28
-13 -59 -24 -67 -24 -9 0 -16 -4 -16 -10 0 -5 -7 -10 -15 -10 -19 0 -208 -91
-217 -104 -4 -6 -8 -8 -8 -4 0 7 -63 -25 -145 -73 -16 -10 -54 -30 -82 -45
-29 -15 -53 -31 -53 -36 0 -4 -3 -7 -7 -6 -19 6 -359 -218 -563 -370 -74 -56
-146 -109 -159 -119 -14 -10 -32 -25 -40 -34 -9 -8 -36 -31 -61 -49 -25 -19
-46 -38 -48 -42 -2 -5 -10 -8 -18 -8 -8 0 -14 -4 -14 -8 0 -4 -31 -33 -68 -64
-69 -56 -132 -112 -183 -158 -15 -14 -60 -54 -100 -90 -40 -36 -111 -102 -158
-147 -50 -48 -90 -79 -97 -75 -7 4 -47 40 -90 81 -130 121 -198 183 -264 241
-35 30 -68 59 -74 65 -6 5 -40 35 -76 65 -36 30 -67 57 -70 60 -6 7 -271 215
-330 260 -25 19 -47 37 -50 40 -3 3 -12 10 -21 15 -28 17 -313 214 -326 225
-7 5 -14 10 -17 10 -5 0 -117 69 -142 87 -14 11 -38 25 -179 103 -83 46 -296
151 -375 185 -36 15 -81 35 -100 43 -19 9 -42 17 -50 18 -8 2 -23 7 -35 13
-24 12 -132 51 -143 51 -4 1 -37 10 -74 21 -37 11 -73 22 -80 23 -7 1 -49 10
-93 19 -152 33 -170 36 -240 43 -93 10 -328 11 -389 3z m341 -643 c32 -3 67
-8 78 -10 71 -15 178 -40 225 -54 30 -9 57 -17 60 -17 3 -1 12 -5 20 -8 8 -4
52 -20 97 -36 89 -33 138 -54 250 -108 40 -19 74 -33 75 -31 2 1 17 -6 33 -18
17 -11 59 -36 95 -55 36 -19 67 -37 68 -41 2 -5 7 -8 12 -8 18 0 412 -256 418
-272 2 -4 8 -8 13 -8 5 0 17 -7 26 -14 10 -8 83 -64 161 -125 79 -60 156 -120
171 -133 14 -12 53 -45 86 -73 33 -27 65 -54 71 -60 6 -5 32 -28 59 -50 26
-22 60 -51 75 -65 245 -224 330 -305 330 -317 0 -6 -26 -38 -57 -71 -32 -33
-83 -88 -113 -122 -30 -35 -59 -68 -65 -74 -31 -33 -185 -214 -185 -218 0 -3
44 3 98 12 53 10 117 21 142 24 25 3 59 8 75 11 170 27 401 38 670 31 143 -3
283 -8 310 -11 113 -13 342 -47 401 -59 35 -8 64 -12 64 -10 0 4 -103 128
-137 164 -12 14 -31 34 -40 46 -42 50 -142 161 -190 212 -29 30 -53 59 -53 64
0 10 54 63 191 190 157 145 256 232 349 308 78 63 85 70 100 83 8 8 38 31 65
52 28 20 52 40 55 44 16 21 395 291 408 291 5 0 17 8 28 18 31 28 134 93 134
85 0 -5 4 -3 8 2 6 10 23 20 137 86 57 32 272 141 320 161 22 9 61 26 87 37
25 11 49 17 52 14 3 -4 6 -2 6 4 0 6 15 14 33 18 17 4 34 9 37 10 3 1 12 4 20
8 72 28 235 68 330 82 24 4 48 9 52 11 4 3 67 5 140 6 150 1 210 -5 295 -31
17 -5 34 -7 37 -3 3 3 6 0 6 -6 0 -7 6 -12 14 -12 23 0 137 -56 187 -92 164
-118 288 -290 369 -515 18 -48 36 -97 41 -108 11 -27 40 -144 43 -175 2 -14 7
-36 11 -50 5 -14 9 -34 10 -45 0 -11 4 -33 8 -50 9 -37 18 -125 32 -315 13
-169 8 -508 -10 -695 -1 -16 -6 -61 -9 -100 -4 -38 -9 -86 -12 -105 -2 -19 -6
-55 -9 -80 -3 -25 -7 -56 -10 -70 -3 -14 -7 -43 -10 -65 -5 -43 -14 -104 -21
-145 -2 -14 -8 -52 -14 -85 -5 -33 -12 -69 -14 -80 -2 -11 -7 -40 -12 -65 -4
-25 -8 -47 -9 -50 -1 -3 -4 -18 -8 -35 -4 -16 -9 -43 -12 -60 -2 -16 -14 -70
-26 -120 -12 -49 -23 -99 -24 -110 -1 -11 -4 -27 -8 -35 -4 -8 -8 -26 -11 -40
-2 -14 -9 -44 -15 -66 -13 -47 -4 -46 -146 -14 -49 12 -101 23 -115 26 -49 8
-55 10 -65 15 -5 3 -22 5 -37 4 -16 0 -28 3 -28 7 0 4 -12 8 -27 8 -16 0 -44
4 -63 9 -19 5 -51 12 -70 15 -19 2 -47 7 -62 11 -34 7 -35 1 -7 -28 16 -17
136 -162 191 -232 238 -300 473 -729 628 -1147 18 -48 36 -86 40 -83 4 3 15
28 24 57 9 29 20 60 23 68 3 8 7 20 9 25 3 11 33 99 44 130 5 11 20 58 35 105
14 47 29 92 32 100 3 8 7 22 9 31 2 9 8 28 14 43 11 30 16 29 120 -5 78 -25
173 -53 185 -54 6 -1 21 -7 35 -15 14 -7 26 -13 27 -12 7 4 64 -12 69 -19 3
-5 13 -9 22 -9 17 0 55 -13 257 -90 61 -23 115 -43 120 -44 6 -2 21 -8 35 -13
14 -6 49 -21 79 -33 72 -28 142 -58 163 -70 10 -6 25 -10 33 -10 8 0 15 -4 15
-10 0 -5 8 -10 18 -10 10 0 23 -5 29 -11 6 -6 17 -11 24 -13 36 -5 305 -146
549 -287 14 -8 28 -18 32 -24 5 -7 8 -7 8 0 0 7 3 7 8 0 4 -5 47 -37 95 -69
49 -32 94 -64 100 -70 7 -6 25 -19 40 -29 16 -10 38 -27 50 -37 140 -116 182
-154 243 -216 69 -70 194 -217 194 -228 0 -3 12 -24 28 -48 43 -68 50 -80 77
-138 51 -107 77 -216 79 -335 2 -122 -4 -164 -41 -278 -47 -147 -136 -293
-269 -441 -83 -93 -163 -172 -219 -216 -18 -14 -63 -50 -101 -80 -37 -30 -72
-55 -77 -55 -5 0 -14 -7 -20 -15 -7 -9 -50 -40 -97 -70 -47 -29 -91 -60 -98
-67 -8 -7 -17 -11 -21 -9 -4 3 -20 -6 -36 -20 -15 -13 -32 -24 -38 -24 -5 0
-29 -13 -54 -30 -24 -16 -48 -30 -52 -30 -5 0 -25 -11 -45 -25 -20 -13 -36
-22 -36 -18 0 3 -9 -2 -20 -12 -11 -10 -20 -14 -20 -9 0 5 -4 4 -8 -1 -7 -10
-100 -57 -237 -121 -133 -61 -185 -83 -305 -131 -63 -25 -128 -51 -145 -58
-74 -30 -144 -57 -156 -59 -8 -1 -18 -4 -24 -7 -10 -6 -109 -40 -130 -45 -5
-2 -50 -17 -98 -34 -49 -17 -97 -32 -108 -33 -10 -1 -19 -5 -19 -9 0 -4 -8 -8
-17 -8 -10 0 -37 -7 -61 -15 -24 -9 -51 -17 -60 -19 -40 -7 -78 -19 -88 -28
-14 -11 -30 8 -40 47 -4 17 -11 36 -17 43 -5 6 -7 12 -4 12 7 0 -150 461 -161
472 -4 4 -23 -34 -41 -85 -160 -453 -433 -927 -748 -1299 -40 -47 -73 -89 -73
-93 0 -3 10 -3 21 0 12 4 33 8 48 10 32 3 127 21 209 39 9 2 46 9 82 16 36 6
76 16 90 20 31 11 96 23 134 24 31 1 35 -7 51 -89 2 -11 11 -49 20 -85 10 -35
19 -73 20 -85 2 -11 8 -42 14 -70 6 -27 13 -59 15 -70 3 -18 18 -93 21 -105 5
-19 24 -121 35 -190 5 -30 11 -66 14 -80 6 -33 19 -120 21 -145 2 -11 5 -39 9
-62 3 -24 9 -62 12 -85 3 -24 7 -54 9 -68 4 -23 13 -123 20 -215 35 -481 19
-836 -52 -1155 -20 -87 -16 -74 -32 -130 -7 -25 -14 -49 -16 -55 -1 -5 -5 -19
-9 -30 -5 -11 -13 -33 -19 -50 -6 -16 -25 -63 -44 -103 -18 -41 -33 -78 -33
-83 0 -5 -3 -9 -7 -9 -5 0 -21 -25 -38 -55 -16 -30 -33 -55 -36 -55 -4 0 -10
-9 -14 -20 -10 -31 -147 -164 -217 -210 -56 -38 -180 -95 -229 -106 -11 -2
-29 -7 -41 -10 -56 -13 -121 -19 -223 -19 -111 0 -239 10 -255 20 -5 3 -21 7
-37 9 -176 22 -525 159 -809 317 -145 80 -425 260 -470 300 -11 11 -23 19 -27
19 -8 0 -130 91 -244 182 -22 18 -54 43 -70 55 -15 12 -38 31 -50 42 -12 12
-25 21 -28 21 -4 0 -19 12 -35 27 -16 16 -43 39 -60 53 -17 14 -38 31 -46 39
-8 7 -34 29 -57 48 -54 45 -217 195 -323 298 l-83 80 62 65 c34 36 91 99 127
139 36 41 70 79 75 85 41 43 144 170 141 173 -2 3 -42 -2 -88 -11 -90 -17
-189 -31 -283 -41 -33 -4 -71 -9 -85 -12 -45 -9 -662 -11 -755 -2 -79 8 -131
14 -285 35 -19 3 -75 12 -123 21 -48 8 -90 13 -93 10 -3 -3 14 -27 38 -54 24
-27 70 -80 103 -118 82 -95 147 -168 159 -181 61 -64 96 -104 96 -112 0 -8
-59 -65 -244 -237 -73 -67 -142 -128 -285 -251 -134 -115 -493 -387 -578 -439
-10 -5 -26 -18 -37 -27 -11 -10 -25 -18 -32 -18 -7 0 -14 -4 -16 -8 -1 -5 -32
-26 -68 -48 -36 -21 -71 -45 -78 -51 -7 -7 -20 -13 -28 -13 -8 0 -14 -4 -14
-10 0 -5 -4 -10 -10 -10 -5 0 -33 -14 -62 -31 -56 -33 -342 -179 -350 -179 -3
0 -23 -8 -44 -17 -22 -9 -41 -17 -44 -18 -3 -1 -18 -7 -35 -14 -16 -7 -34 -14
-40 -15 -5 -2 -18 -6 -27 -10 -9 -4 -22 -9 -30 -10 -7 -2 -21 -6 -31 -9 -34
-13 -53 -19 -122 -37 -38 -11 -85 -22 -104 -25 -19 -3 -37 -8 -41 -10 -27 -17
-330 -26 -425 -13 -53 7 -163 36 -180 46 -5 4 -12 7 -15 8 -16 2 -93 44 -144
78 -63 42 -154 128 -202 192 -16 21 -32 41 -35 44 -3 3 -8 10 -10 15 -2 6 -24
46 -49 90 -25 44 -45 83 -45 87 0 3 -3 10 -7 14 -5 4 -8 16 -8 26 0 10 -5 18
-12 18 -6 0 -8 3 -5 6 3 4 1 16 -5 28 -7 11 -13 23 -13 26 0 3 -9 32 -19 65
-10 33 -20 66 -22 73 -2 7 -4 13 -4 15 -1 3 -20 78 -25 102 -5 20 -22 110 -29
155 -10 55 -18 128 -22 180 -1 30 -6 78 -9 105 -10 75 -9 446 0 560 5 55 9
120 10 145 2 49 13 164 21 220 3 19 7 58 10 85 2 28 7 58 10 67 3 9 7 39 10
65 2 26 8 71 13 98 5 28 14 82 20 120 13 87 21 126 26 145 2 8 7 31 10 50 3
19 8 43 11 53 3 10 7 31 9 47 4 29 16 83 56 250 12 47 23 99 26 115 2 17 9 34
14 39 8 9 68 -1 154 -24 17 -5 50 -12 75 -16 25 -4 47 -8 50 -9 3 0 23 -5 45
-9 22 -5 47 -10 55 -11 8 -2 40 -8 70 -15 30 -6 66 -13 80 -15 14 -2 40 -6 58
-9 17 -4 32 -4 32 -1 0 3 -37 50 -82 104 -307 366 -555 796 -728 1260 -43 116
-70 159 -70 114 0 -11 -11 -47 -24 -81 -14 -35 -25 -65 -26 -67 -1 -7 -5 -19
-49 -147 -22 -65 -39 -118 -37 -118 2 0 -9 -35 -24 -77 -31 -86 -42 -93 -107
-66 -18 7 -34 13 -35 12 -2 0 -10 2 -18 4 -8 3 -49 15 -90 27 -82 24 -216 67
-240 77 -8 3 -19 7 -25 9 -14 4 -207 73 -225 81 -8 3 -17 7 -20 8 -3 1 -13 5
-22 9 -9 4 -22 9 -30 10 -7 2 -26 8 -42 15 -15 6 -63 25 -105 42 -81 32 -93
38 -214 93 -43 20 -80 36 -83 36 -9 0 -325 160 -364 185 -22 14 -40 22 -40 19
0 -4 -8 0 -17 8 -10 9 -40 28 -68 43 -62 34 -306 193 -320 209 -5 6 -46 38
-89 70 -86 64 -318 289 -356 346 -13 19 -27 37 -30 40 -12 11 -79 118 -112
181 -37 68 -80 192 -95 269 -9 45 -9 238 0 275 3 11 11 40 18 65 7 25 13 50
14 55 6 29 77 179 88 183 4 2 7 8 7 14 0 11 60 99 75 110 7 5 7 8 0 8 -6 0 -5
3 1 8 6 4 33 34 60 67 77 96 237 251 310 300 20 14 33 25 29 25 -8 0 41 36
208 149 65 45 121 81 124 81 4 0 14 6 22 14 9 7 48 30 86 51 39 21 75 41 80
45 21 17 309 160 322 160 7 0 13 5 13 10 0 6 9 10 20 10 11 0 20 5 20 10 0 6
7 10 15 10 8 0 23 4 33 10 9 5 37 18 62 28 25 11 68 29 95 41 74 33 175 73
188 75 7 1 22 7 33 14 12 6 24 8 28 5 3 -3 6 -2 6 4 0 6 10 13 23 16 12 3 105
34 207 70 102 35 239 81 305 102 66 20 142 44 168 52 27 8 52 11 56 7 5 -5 41
-110 81 -234 40 -124 76 -230 82 -236 5 -7 8 -16 7 -20 -1 -5 1 -18 5 -29 4
-11 12 -32 18 -47 6 -16 14 -28 18 -28 4 0 22 42 40 93 63 181 182 442 297
652 118 214 332 514 522 734 27 31 26 33 -6 27 -16 -3 -53 -9 -83 -15 -30 -5
-80 -15 -110 -21 -30 -7 -66 -13 -80 -15 -14 -1 -32 -5 -40 -8 -8 -3 -28 -8
-45 -11 -16 -3 -52 -11 -80 -17 -27 -5 -61 -12 -75 -15 -14 -3 -34 -8 -45 -11
-35 -12 -44 -11 -53 0 -9 12 -40 128 -46 177 -2 14 -8 36 -14 50 -5 14 -10 28
-10 33 -3 31 -16 104 -20 112 -3 5 -7 18 -8 30 -1 11 -10 54 -18 95 -9 42 -18
89 -20 105 -4 28 -7 41 -23 125 -3 19 -7 46 -9 60 -1 14 -5 41 -9 60 -4 19 -9
51 -11 70 -2 19 -6 53 -10 75 -4 22 -8 54 -9 70 -1 17 -5 46 -8 65 -6 33 -17
146 -22 235 -2 22 -6 87 -10 145 -10 135 -12 438 -3 515 3 33 9 89 12 125 8
105 15 159 32 250 2 8 6 31 10 50 4 19 8 42 9 50 5 42 84 301 96 315 5 5 9 17
9 27 0 10 4 18 10 18 5 0 9 3 8 8 -4 22 98 200 147 257 81 92 126 134 195 181
78 54 213 108 300 121 19 3 50 8 68 11 39 8 208 7 289 -2z"/>
<path d="M5370 10237 c0 -8 3 -17 7 -21 4 -3 8 -13 10 -21 2 -8 4 -22 6 -30 2
-8 6 -18 10 -21 4 -4 7 -16 7 -26 0 -10 4 -18 8 -18 5 0 9 -6 10 -12 4 -37 29
-108 37 -101 4 4 6 -2 3 -14 -4 -13 0 -27 8 -34 8 -6 11 -15 8 -20 -3 -5 -1
-9 5 -9 6 0 8 -7 5 -15 -4 -8 -1 -15 6 -15 7 0 10 -6 7 -14 -3 -7 3 -26 13
-41 10 -15 16 -34 13 -41 -3 -8 -1 -14 5 -14 5 0 12 -18 16 -40 3 -22 11 -40
18 -40 6 0 9 -3 5 -6 -3 -3 3 -26 13 -50 11 -24 17 -44 13 -44 -3 0 0 -6 6
-14 6 -8 11 -18 9 -22 -1 -5 4 -20 12 -34 8 -14 15 -29 15 -35 1 -5 4 -17 8
-25 15 -34 40 -108 50 -147 7 -24 15 -43 19 -43 5 0 8 -11 8 -25 0 -14 5 -25
10 -25 6 0 10 -11 10 -24 0 -14 4 -27 8 -30 4 -3 14 -28 22 -55 7 -28 17 -51
22 -51 4 0 8 -11 8 -25 0 -14 3 -25 8 -25 4 0 8 -12 9 -26 0 -15 7 -30 13 -34
7 -4 10 -12 6 -18 -3 -5 1 -15 9 -22 7 -6 12 -17 9 -25 -3 -7 -1 -16 5 -19 6
-4 8 -13 4 -21 -3 -8 -1 -15 5 -15 8 0 19 -22 27 -55 2 -5 4 -13 5 -17 1 -5 3
-12 4 -17 0 -5 4 -13 9 -17 4 -4 7 -17 7 -30 0 -12 3 -24 8 -26 4 -1 16 -30
27 -63 15 -43 26 -61 40 -63 11 -3 17 -1 13 3 -7 7 18 39 98 127 13 15 24 30
24 35 0 4 9 16 19 28 43 44 101 113 101 118 0 3 11 19 25 34 13 15 38 43 55
62 16 19 30 38 30 42 0 5 16 23 35 40 19 17 33 34 32 38 -1 3 7 15 18 27 11
12 27 30 35 40 28 36 95 119 110 136 8 9 25 29 37 45 54 70 96 120 123 150 17
17 30 36 30 41 0 6 3 12 8 14 4 2 31 32 60 68 29 36 66 79 82 97 17 17 30 36
30 41 0 5 13 20 29 33 16 13 28 26 25 30 -2 4 8 18 23 31 16 13 29 30 31 38 2
8 18 28 35 46 39 39 87 99 87 108 0 3 14 19 30 34 17 16 30 33 30 37 0 4 13
22 30 39 50 53 90 103 90 115 0 8 -271 11 -1005 11 -831 0 -1005 -2 -1005 -13z"/>
<path d="M7907 10243 c-12 -12 -7 -23 23 -50 17 -14 30 -31 30 -37 1 -6 14
-22 30 -36 17 -13 30 -28 30 -32 0 -5 14 -22 30 -40 17 -17 28 -33 26 -36 -3
-2 8 -15 25 -29 16 -14 29 -29 29 -34 0 -5 15 -24 33 -43 17 -18 55 -63 82
-99 28 -36 53 -66 58 -66 4 -1 7 -6 7 -13 0 -7 14 -26 30 -42 17 -17 47 -51
66 -76 59 -75 88 -110 119 -143 16 -18 29 -35 28 -38 -1 -3 11 -19 27 -34 17
-16 30 -32 30 -36 0 -5 12 -22 28 -39 89 -100 152 -177 152 -186 0 -4 14 -20
32 -36 17 -15 28 -28 24 -28 -8 0 34 -50 100 -121 13 -14 24 -29 24 -34 0 -4
11 -18 25 -31 14 -13 25 -27 25 -32 0 -4 16 -23 35 -42 19 -19 35 -38 35 -44
0 -5 14 -22 32 -38 17 -15 28 -28 23 -28 -4 0 6 -14 24 -30 17 -17 31 -34 31
-38 0 -4 17 -25 38 -45 32 -31 41 -35 50 -24 7 8 9 17 6 20 -3 3 3 19 15 35
11 16 18 32 14 35 -3 4 -1 13 5 20 7 8 10 16 7 19 -3 3 1 18 10 34 8 16 15 35
15 42 0 6 5 12 11 12 5 0 8 4 4 10 -3 5 -1 17 4 27 9 17 35 82 37 93 0 3 3 12
6 20 4 8 9 24 14 35 4 11 8 22 9 25 1 3 5 13 8 23 4 9 10 25 14 35 3 9 7 19 8
22 2 3 6 15 10 28 4 12 11 22 15 22 5 0 6 9 3 20 -3 12 0 20 6 20 7 0 9 4 6
10 -3 5 1 20 9 32 9 12 16 30 16 40 0 10 4 18 8 18 4 0 8 8 9 18 0 9 18 60 38
112 20 52 38 103 38 113 1 9 5 17 9 17 4 0 8 9 8 19 0 11 5 23 10 26 6 4 8 11
5 16 -4 5 -1 9 5 9 6 0 10 6 9 13 -2 12 4 34 24 77 6 14 12 30 13 35 2 16 14
48 31 78 8 16 12 31 9 34 -3 4 0 13 6 21 7 8 13 20 13 26 1 6 6 22 12 36 14
30 26 63 27 72 1 3 4 10 9 14 4 4 7 18 7 30 0 12 7 29 15 38 8 8 12 22 9 30
-3 9 -1 16 5 16 6 0 11 8 11 18 0 10 6 27 14 37 8 11 12 25 9 31 -2 7 0 15 6
19 6 3 11 13 11 21 0 12 -136 14 -998 14 -549 0 -1002 -3 -1005 -7z"/>
<path d="M7628 10154 c-7 -9 -27 -32 -45 -53 -66 -75 -93 -109 -93 -115 0 -3
-14 -19 -31 -36 -18 -16 -28 -30 -23 -30 5 0 -4 -11 -19 -25 -15 -15 -35 -38
-45 -53 -9 -15 -27 -35 -39 -45 -13 -10 -23 -23 -23 -29 0 -5 -11 -22 -24 -36
-14 -15 -43 -49 -65 -77 -23 -27 -53 -61 -67 -75 -13 -14 -22 -29 -19 -32 3
-3 -8 -17 -25 -31 -16 -14 -30 -30 -30 -34 0 -5 -16 -24 -35 -43 -19 -19 -35
-38 -35 -43 0 -5 -10 -19 -22 -31 -25 -24 -88 -102 -88 -109 0 -3 -16 -22 -35
-43 -20 -22 -48 -52 -63 -69 -15 -16 -25 -30 -22 -31 3 -2 -11 -19 -29 -38
-19 -20 -32 -36 -28 -36 4 0 -10 -18 -30 -40 -64 -67 -93 -101 -93 -107 0 -2
-21 -30 -47 -61 -27 -31 -52 -63 -58 -70 -5 -7 -25 -29 -42 -48 -18 -20 -33
-39 -33 -43 0 -4 -11 -18 -25 -31 -14 -13 -25 -27 -25 -32 0 -5 -15 -24 -32
-44 -67 -72 -91 -101 -89 -109 2 -4 -3 -12 -11 -16 -10 -7 -8 -9 7 -9 25 -1
2751 -2 2784 -1 20 1 21 3 11 16 -7 8 -10 15 -6 15 3 0 -2 8 -11 18 -10 11
-21 17 -25 15 -4 -2 -10 7 -14 21 -3 13 -21 37 -40 52 -19 16 -34 34 -34 40 0
6 -11 21 -25 34 -14 13 -25 27 -25 31 0 7 -16 26 -95 111 -20 22 -35 42 -32
44 2 3 -10 19 -27 37 -44 46 -86 98 -86 105 0 4 -11 18 -25 32 -43 44 -95 107
-95 115 0 4 -9 17 -20 29 -49 51 -161 186 -154 186 4 0 -7 13 -24 28 -18 16
-32 32 -32 37 0 7 -55 73 -103 123 -12 12 -22 26 -22 31 0 4 -10 19 -22 32
-81 91 -103 117 -103 123 0 4 -11 17 -25 30 -14 13 -25 28 -25 34 0 6 -6 15
-13 19 -7 4 -28 28 -47 53 -19 25 -44 53 -55 62 -11 10 -16 17 -11 18 4 0 -6
13 -23 29 -17 16 -31 33 -31 38 0 5 -13 22 -30 38 -16 16 -30 33 -30 38 0 5
-16 23 -35 39 -19 17 -32 34 -30 38 3 4 -2 13 -9 19 -11 9 -17 8 -28 -5z"/>
<path d="M5150 10069 c0 -9 -47 -87 -60 -99 -3 -3 -11 -16 -18 -30 -19 -39
-36 -64 -50 -73 -7 -5 -10 -12 -7 -18 4 -5 2 -9 -3 -9 -6 0 -13 -11 -16 -25
-4 -14 -11 -25 -16 -25 -6 0 -10 -7 -10 -15 0 -7 -8 -19 -17 -24 -10 -6 -14
-11 -9 -11 4 0 -3 -15 -18 -34 -14 -19 -26 -38 -26 -41 0 -4 -13 -27 -30 -52
-16 -24 -30 -48 -30 -54 0 -5 -4 -9 -9 -9 -5 0 -17 -18 -27 -40 -10 -22 -21
-40 -26 -40 -4 0 -8 -7 -8 -15 0 -9 -7 -18 -16 -22 -8 -3 -13 -12 -10 -19 3
-8 2 -14 -2 -14 -5 0 -18 -18 -31 -40 -12 -22 -26 -40 -32 -40 -5 0 -9 -7 -9
-16 0 -8 -15 -36 -32 -62 -18 -26 -32 -50 -30 -54 1 -5 -3 -8 -8 -8 -6 0 -10
-7 -10 -15 0 -9 -6 -18 -13 -21 -8 -3 -20 -20 -27 -39 -8 -19 -17 -35 -22 -35
-4 0 -8 -5 -8 -11 0 -6 -7 -17 -15 -26 -8 -8 -13 -18 -10 -23 3 -4 -2 -10 -10
-14 -8 -3 -15 -11 -15 -19 0 -7 -8 -22 -17 -33 -24 -27 -42 -55 -49 -76 -4
-10 -10 -18 -15 -18 -5 0 -8 -3 -7 -7 2 -7 -27 -57 -74 -125 -10 -15 -18 -31
-18 -37 0 -5 -7 -12 -16 -15 -9 -4 -14 -9 -11 -12 3 -4 -14 -36 -39 -73 -24
-36 -44 -71 -44 -78 0 -7 -4 -13 -8 -13 -10 0 -35 -51 -28 -57 7 -7 1616 -7
1623 0 3 4 -2 22 -11 41 -9 19 -16 41 -16 50 0 9 -4 16 -9 16 -6 0 -8 9 -6 20
2 11 1 20 -3 20 -9 0 -33 69 -33 93 0 9 -4 17 -10 17 -5 0 -9 9 -9 19 0 11 -7
26 -15 34 -8 8 -12 24 -10 36 2 12 0 21 -6 21 -5 0 -9 9 -9 19 0 11 -5 23 -10
26 -6 4 -8 10 -5 14 2 5 -2 17 -10 27 -8 10 -15 29 -15 42 0 12 -4 22 -8 22
-5 0 -9 6 -10 13 -1 6 -3 23 -4 37 -2 14 -11 33 -20 44 -9 10 -14 24 -12 31 3
7 1 16 -5 20 -6 3 -11 15 -11 26 0 10 -5 19 -11 19 -5 0 -8 4 -4 9 3 5 -1 25
-9 43 -15 34 -28 69 -30 78 -1 3 -5 11 -9 18 -5 6 -6 12 -2 12 3 0 -4 18 -15
40 -11 22 -17 40 -13 40 4 0 2 5 -5 12 -7 7 -12 20 -12 30 0 10 -4 18 -10 18
-5 0 -7 7 -4 15 4 8 1 15 -6 15 -6 0 -9 4 -5 10 3 5 1 17 -4 27 -15 29 -24 57
-22 71 1 6 -2 12 -8 12 -5 0 -13 15 -16 33 -4 17 -12 38 -17 45 -6 6 -7 12 -3
12 4 0 2 7 -5 15 -7 8 -10 22 -6 30 3 8 1 15 -4 15 -6 0 -10 7 -10 15 0 8 -4
15 -9 15 -6 0 -8 9 -6 20 2 11 0 20 -5 20 -4 0 -11 18 -15 40 -4 22 -10 40
-14 40 -7 0 -37 90 -33 103 1 4 -3 7 -8 7 -6 0 -10 6 -9 13 2 21 -12 55 -27
61 -8 3 -14 1 -14 -5z"/>
<path d="M10100 10060 c0 -11 -5 -20 -11 -20 -5 0 -7 -5 -4 -10 4 -6 2 -16 -3
-23 -6 -7 -11 -16 -12 -22 -1 -5 -6 -20 -11 -33 -5 -13 -9 -29 -9 -37 0 -8 -5
-17 -10 -20 -6 -4 -8 -11 -5 -16 4 -5 1 -9 -4 -9 -6 0 -11 -10 -11 -23 0 -13
-3 -27 -7 -31 -5 -4 -8 -11 -9 -14 -1 -7 -3 -14 -27 -77 -7 -16 -12 -32 -13
-35 0 -3 -6 -18 -12 -33 -7 -16 -12 -35 -12 -43 0 -8 -5 -14 -11 -14 -6 0 -9
-6 -6 -14 3 -8 -1 -20 -8 -26 -8 -7 -12 -16 -9 -22 3 -5 -1 -19 -9 -32 -9 -13
-19 -39 -22 -60 -4 -20 -11 -36 -16 -36 -4 0 -11 -16 -15 -35 -3 -19 -10 -35
-14 -35 -4 0 -7 -8 -7 -17 0 -10 -7 -36 -17 -57 -10 -22 -19 -48 -21 -57 -2
-9 -8 -25 -13 -35 -17 -32 -52 -129 -52 -142 0 -6 -4 -12 -9 -12 -5 0 -8 -6
-8 -12 2 -23 -23 -98 -33 -98 -5 0 -8 -8 -7 -18 0 -10 -8 -38 -20 -62 -21 -46
-50 -126 -60 -167 -3 -13 -10 -23 -15 -23 -5 0 -6 -5 -3 -10 4 -6 0 -21 -8
-33 -7 -12 -17 -35 -21 -52 -10 -43 -30 -85 -39 -85 -4 0 -4 -7 1 -16 8 -15
81 -16 808 -16 439 1 807 1 817 1 18 1 25 31 6 31 -5 0 -8 4 -4 9 3 6 -1 13
-8 18 -12 7 -30 42 -27 51 1 2 -8 12 -19 21 -11 10 -18 21 -14 24 3 4 -1 9
-10 13 -9 3 -19 19 -22 35 -4 16 -10 29 -15 29 -5 0 -15 12 -22 28 -22 43 -42
75 -56 90 -7 7 -10 17 -7 22 3 4 -2 10 -10 14 -8 3 -21 18 -27 33 -7 15 -25
44 -40 64 -15 20 -25 39 -21 43 3 3 1 6 -5 6 -7 0 -12 6 -12 14 0 7 -7 19 -15
26 -8 7 -12 16 -9 21 3 5 0 9 -6 9 -5 0 -18 17 -28 38 -9 20 -23 41 -30 45 -7
5 -10 12 -7 18 4 5 2 9 -4 9 -5 0 -16 12 -23 28 -26 51 -43 77 -54 84 -7 4
-15 19 -18 33 -4 14 -14 34 -24 45 -26 29 -35 42 -62 93 -13 26 -28 47 -31 47
-4 0 -12 15 -20 33 -7 17 -16 34 -20 37 -3 3 -21 30 -40 60 -18 30 -37 58 -42
61 -5 4 -6 12 -3 18 4 6 1 11 -7 11 -13 0 -22 15 -25 43 0 5 -11 17 -23 28
-12 10 -18 19 -14 19 5 0 -2 12 -16 26 -13 14 -22 27 -19 29 3 3 -3 14 -12 25
-10 11 -18 23 -18 27 0 3 -11 21 -25 38 -13 18 -21 35 -18 39 4 3 1 6 -5 6 -6
0 -14 9 -17 21 -4 12 -16 30 -26 40 -10 10 -19 26 -19 34 0 8 -7 15 -15 15 -8
0 -15 -9 -15 -20z"/>
<path d="M4567 8182 c-3 -4 -87 -8 -187 -7 -173 0 -226 -5 -187 -21 9 -3 17
-11 17 -18 0 -6 13 -24 28 -41 23 -25 169 -204 207 -253 5 -8 20 -25 32 -38
12 -13 20 -24 18 -24 -5 0 26 -39 55 -69 9 -9 29 -34 45 -56 16 -22 37 -49 47
-60 9 -11 25 -30 35 -41 10 -12 29 -36 43 -54 14 -18 32 -41 40 -51 8 -9 26
-32 40 -50 14 -18 35 -43 47 -56 12 -13 20 -23 17 -23 -3 0 6 -11 20 -24 15
-13 26 -28 26 -34 0 -6 4 -12 8 -14 4 -1 23 -23 42 -48 19 -25 41 -49 48 -53
6 -4 12 -12 12 -17 0 -5 10 -20 23 -33 34 -37 91 -107 101 -126 5 -9 14 -20
20 -26 10 -9 65 -76 106 -129 8 -11 25 -30 38 -43 12 -13 22 -28 22 -33 0 -4
3 -10 8 -12 4 -1 23 -23 42 -48 37 -47 57 -72 102 -124 15 -17 28 -35 28 -39
0 -4 16 -23 35 -42 19 -19 31 -35 27 -35 -4 0 -2 -4 4 -8 6 -4 39 -43 73 -87
35 -44 70 -87 77 -95 14 -15 49 -58 109 -134 17 -21 37 -46 45 -56 8 -10 29
-35 45 -56 71 -90 96 -120 117 -141 13 -13 20 -23 16 -23 -4 0 3 -10 15 -23
28 -29 54 -61 92 -112 17 -21 37 -46 45 -55 8 -9 26 -31 40 -49 14 -18 35 -45
47 -59 70 -85 91 -112 118 -147 17 -22 40 -50 53 -63 12 -12 22 -26 22 -30 0
-4 9 -14 20 -22 11 -8 20 -19 20 -25 0 -5 18 -29 40 -53 22 -23 38 -42 35 -42
-3 0 3 -8 13 -18 9 -10 31 -36 47 -57 17 -22 37 -46 45 -55 8 -8 26 -31 40
-50 25 -36 44 -59 92 -111 15 -16 28 -33 28 -37 1 -4 15 -22 31 -39 16 -18 29
-34 29 -37 0 -5 45 -59 78 -93 12 -13 22 -26 22 -29 0 -3 6 -11 13 -18 6 -7
21 -25 32 -40 11 -16 36 -45 56 -67 20 -21 35 -40 33 -41 -1 -2 13 -21 31 -43
19 -21 37 -36 41 -32 4 3 1 13 -6 22 -7 8 -9 15 -5 15 4 0 3 6 -2 13 -6 6 -16
33 -24 60 -7 26 -16 47 -20 47 -3 0 -6 7 -7 15 -1 8 -3 22 -4 30 -1 8 -6 15
-11 15 -6 0 -8 3 -4 6 3 4 0 19 -9 35 -8 16 -14 30 -13 31 0 2 -4 16 -10 31
-6 16 -11 35 -11 43 0 8 -5 14 -11 14 -5 0 -8 4 -5 8 3 5 -1 20 -9 35 -8 15
-11 27 -8 27 3 0 1 6 -4 13 -6 6 -14 26 -18 42 -11 40 -13 45 -43 115 -8 19
-14 41 -13 48 1 6 -2 12 -6 12 -5 0 -9 8 -10 18 -1 9 -7 31 -14 47 -7 17 -13
33 -14 38 -2 4 -4 9 -5 12 -1 3 -3 8 -5 13 -3 10 -15 43 -25 67 -5 11 -14 38
-21 60 -7 22 -17 44 -21 50 -4 5 -8 15 -8 21 0 7 -5 25 -12 41 -6 15 -12 30
-12 33 -1 3 -4 10 -7 15 -4 6 -10 25 -14 43 -3 17 -11 32 -15 32 -5 0 -7 7 -4
15 4 8 1 15 -6 15 -7 0 -10 8 -7 20 3 11 2 20 -2 20 -7 0 -32 68 -29 80 0 3
-9 25 -22 50 -13 25 -22 45 -21 45 1 0 -2 13 -8 28 -6 16 -11 34 -11 41 0 6
-5 17 -12 24 -7 7 -8 12 -4 12 5 0 1 11 -8 25 -9 14 -14 30 -11 35 3 6 1 10
-5 10 -7 0 -10 7 -6 15 3 8 2 15 -3 15 -8 0 -25 56 -22 73 0 4 -4 7 -11 7 -6
0 -9 3 -5 6 3 4 -3 25 -15 48 -11 22 -20 42 -19 44 4 6 -13 59 -25 77 -7 11
-13 22 -13 25 0 5 -8 32 -18 60 -4 8 -8 21 -10 28 -1 6 -5 18 -6 25 -2 6 -9
26 -16 42 -7 17 -28 73 -47 125 -19 52 -40 104 -45 115 -5 11 -11 30 -12 43 0
12 -4 22 -8 22 -6 0 -23 58 -20 73 0 4 -3 7 -8 7 -7 0 -22 48 -20 66 0 4 -3
10 -8 13 -10 6 -38 91 -35 104 1 4 -2 7 -8 7 -5 0 -10 6 -10 14 0 8 -5 27 -12
43 -6 15 -10 32 -9 37 1 5 -2 12 -6 15 -4 3 -21 44 -37 91 -16 47 -34 99 -41
115 -31 73 -43 113 -38 119 4 3 1 6 -5 6 -7 0 -11 3 -10 8 0 4 -2 15 -5 25 -4
9 -10 25 -14 35 -3 9 -7 19 -8 22 -1 3 -4 12 -8 20 -3 8 -13 38 -23 65 -9 28
-21 54 -25 59 -4 5 -5 15 -2 22 3 8 -1 14 -8 14 -7 0 -9 3 -6 7 4 3 2 12 -4
20 -6 7 -8 13 -4 13 4 0 2 6 -4 13 -6 8 -12 22 -14 33 -4 19 -11 40 -27 79
-23 57 -52 134 -54 146 -2 8 -7 25 -13 39 -6 14 -16 42 -23 62 -8 20 -17 35
-22 32 -4 -3 -8 1 -8 8 0 8 -3 9 -8 2 -8 -12 -750 -14 -768 -2 -6 4 -14 4 -18
0 -11 -10 -135 -11 -142 -1 -3 5 -11 6 -17 2 -18 -11 -136 -13 -143 -2 -3 5
-11 6 -17 2 -18 -11 -130 -12 -144 -1 -6 5 -14 5 -16 0z"/>
<path d="M6162 8182 c-48 -4 -49 -9 -11 -83 10 -20 20 -47 22 -60 2 -13 10
-37 17 -54 7 -16 14 -33 14 -37 1 -3 4 -10 9 -14 4 -4 7 -16 7 -26 0 -10 5
-18 11 -18 5 0 8 -4 5 -9 -3 -5 1 -22 9 -37 8 -16 15 -37 15 -46 0 -10 5 -18
11 -18 5 0 7 -5 4 -10 -4 -6 -2 -17 4 -24 7 -8 11 -18 10 -22 -2 -9 13 -49 32
-86 5 -10 9 -25 9 -33 0 -8 4 -15 9 -15 5 0 7 -9 4 -20 -3 -11 0 -20 6 -20 6
0 10 -3 9 -7 0 -5 1 -15 4 -23 18 -47 21 -56 25 -67 1 -7 5 -19 7 -25 1 -7 11
-31 21 -53 9 -22 18 -44 19 -50 5 -25 30 -91 39 -103 5 -7 7 -15 4 -19 -4 -3
-1 -13 5 -21 7 -8 13 -19 15 -26 7 -33 29 -86 35 -86 3 0 4 -9 1 -20 -3 -12 0
-20 6 -20 7 0 11 -6 9 -12 -1 -7 6 -28 15 -45 10 -18 15 -33 11 -33 -4 0 -1
-7 6 -15 7 -8 10 -15 6 -15 -3 0 5 -25 19 -56 14 -31 25 -63 25 -70 0 -8 4
-14 9 -14 5 0 7 -9 4 -20 -3 -12 0 -20 6 -20 7 0 11 -6 10 -12 -1 -7 4 -26 11
-43 7 -16 13 -33 12 -37 -1 -5 2 -8 7 -8 5 0 8 -8 7 -17 -3 -19 -1 -26 28 -81
10 -17 14 -37 11 -42 -3 -6 -1 -10 4 -10 6 0 11 -9 11 -20 0 -12 7 -32 16 -45
9 -13 13 -29 9 -35 -3 -5 -1 -10 4 -10 6 0 11 -9 11 -19 0 -11 5 -23 11 -26 6
-4 8 -12 6 -19 -3 -6 1 -20 9 -31 8 -10 14 -29 14 -42 0 -13 5 -23 10 -23 6 0
10 -9 10 -19 0 -11 5 -23 10 -26 6 -4 8 -11 4 -16 -3 -5 1 -20 9 -33 9 -13 19
-39 22 -60 4 -20 11 -36 16 -36 4 0 6 -9 4 -20 -2 -11 0 -20 6 -20 5 0 9 -7 9
-15 0 -8 4 -15 9 -15 5 0 7 -9 4 -20 -3 -12 0 -20 6 -20 7 0 11 -6 10 -12 -2
-15 7 -42 27 -80 8 -15 14 -30 13 -35 -2 -9 8 -40 22 -66 5 -10 7 -21 5 -26
-3 -4 3 -17 12 -27 10 -10 16 -27 14 -36 -2 -10 1 -18 7 -18 6 0 11 -11 11
-24 0 -13 7 -29 15 -36 8 -7 12 -16 9 -21 -3 -5 -2 -15 3 -21 4 -7 9 -21 10
-30 2 -10 11 -37 22 -60 28 -62 50 -136 43 -142 -3 -3 -1 -6 5 -6 6 0 14 -10
18 -22 13 -43 15 -48 18 -60 4 -12 8 -23 24 -65 3 -10 5 -21 5 -25 -1 -5 3 -8
9 -8 6 0 9 -7 6 -15 -4 -8 -2 -17 2 -19 8 -6 25 -64 22 -78 0 -5 3 -8 9 -8 5
0 12 -16 16 -35 3 -19 11 -35 17 -35 6 0 8 -3 4 -6 -3 -3 3 -25 13 -49 10 -24
16 -46 13 -49 -4 -3 -1 -6 6 -6 7 0 11 -7 8 -15 -4 -8 -2 -17 3 -20 6 -4 10
-15 10 -26 0 -10 4 -19 8 -19 5 0 9 -6 9 -12 1 -7 10 -38 21 -70 11 -31 18
-59 15 -62 -4 -3 -2 -6 4 -6 9 0 35 -68 30 -81 -1 -3 3 -12 9 -20 7 -8 15 -29
19 -47 3 -17 11 -32 17 -32 6 0 8 -7 5 -15 -4 -8 -2 -17 3 -20 6 -4 10 -15 10
-26 0 -10 4 -19 8 -19 4 0 8 -8 9 -17 2 -29 27 -93 36 -93 5 0 5 -9 2 -20 -3
-11 -2 -20 4 -20 5 0 13 -9 16 -20 7 -24 24 -26 30 -5 3 8 8 23 12 33 3 9 5
25 4 36 -2 10 2 15 7 12 10 -6 25 29 23 51 -1 6 3 14 8 18 6 3 8 12 4 20 -3 8
-1 15 5 15 10 0 25 37 23 54 -1 4 4 14 10 22 6 8 8 14 3 14 -4 0 -3 5 4 12 7
7 12 22 12 34 0 12 7 27 15 34 8 6 14 15 13 18 -2 17 15 72 23 72 5 0 6 7 3
15 -4 8 -2 15 4 15 5 0 12 15 16 33 3 17 13 46 20 62 20 42 30 69 27 79 -1 4
3 14 9 20 5 7 7 16 3 19 -3 4 -1 7 5 7 6 0 14 15 17 33 4 17 11 37 15 42 6 9
31 75 36 98 1 4 3 9 4 12 1 3 3 9 4 14 0 5 4 13 9 17 4 4 7 16 7 26 0 10 5 18
11 18 6 0 9 7 6 15 -4 8 -2 17 4 21 6 3 8 12 5 19 -2 7 3 21 12 31 10 11 18
26 18 34 1 16 8 37 26 80 6 14 13 32 14 40 2 8 8 16 14 18 5 2 7 8 4 14 -3 5
1 24 9 41 22 45 30 70 28 85 -1 6 3 12 8 12 6 0 13 16 17 35 3 19 10 35 16 35
5 0 6 5 3 10 -4 6 -1 17 5 25 7 8 10 15 6 15 -3 0 3 16 15 36 11 20 18 39 15
41 -3 3 2 20 11 37 10 17 17 34 18 38 0 3 3 9 7 13 4 4 4 13 2 20 -3 7 -1 16
5 20 6 3 11 15 11 25 0 10 7 25 15 34 9 8 15 18 15 21 -3 13 13 71 22 83 6 6
7 12 2 12 -5 0 -4 4 1 8 6 4 16 23 22 42 19 56 43 123 57 155 7 17 24 60 36
98 13 37 28 67 32 67 5 0 7 4 3 9 -3 5 1 25 9 43 20 45 30 71 31 83 3 16 16
48 31 77 8 15 14 30 13 35 -2 9 3 24 32 90 11 23 19 44 19 47 0 2 5 17 12 33
14 33 13 30 23 68 4 17 15 40 23 53 8 12 12 25 8 29 -3 3 0 13 6 21 7 8 13 20
13 26 1 6 6 22 12 36 18 40 26 64 24 73 -1 4 5 15 14 23 8 9 15 26 15 40 0 13
4 24 9 24 5 0 7 9 4 20 -3 11 0 20 6 20 6 0 11 9 11 19 0 11 5 23 10 26 6 4 8
10 5 15 -3 5 0 12 6 15 5 4 8 13 5 21 -3 8 -1 14 4 14 6 0 10 8 10 18 0 10 4
22 10 28 5 5 11 18 13 29 4 19 6 27 24 73 3 9 5 20 5 25 -1 4 2 7 7 7 5 0 12
18 16 40 4 22 11 40 16 40 5 0 8 3 7 8 0 4 2 15 5 25 4 9 10 25 14 35 3 9 5
23 4 30 -1 6 3 12 9 12 5 0 9 3 8 8 -1 4 4 21 11 37 7 17 14 37 16 45 2 8 4
17 5 20 1 3 2 8 1 13 0 4 3 7 8 7 5 0 12 15 16 33 4 17 8 34 9 37 1 3 4 10 7
15 4 6 10 25 14 43 3 18 10 30 14 28 4 -3 8 6 9 18 1 12 9 40 19 62 9 21 18
44 19 51 1 7 9 26 17 43 l15 30 -46 1 c-167 2 -2905 3 -2940 1z"/>
<path d="M9526 8182 c-3 -5 -30 -9 -60 -7 -53 2 -55 1 -68 -29 -7 -17 -12 -34
-10 -38 1 -5 -3 -8 -9 -8 -5 0 -7 -4 -4 -10 3 -5 2 -10 -3 -10 -5 0 -9 -6 -9
-13 0 -7 -13 -46 -29 -87 -15 -41 -29 -77 -30 -80 -1 -5 -5 -16 -27 -75 -7
-16 -12 -32 -12 -35 0 -3 -6 -14 -12 -25 -6 -11 -12 -23 -12 -27 -8 -44 -15
-68 -21 -68 -5 0 -11 -18 -15 -40 -4 -22 -10 -40 -14 -40 -4 0 -8 -6 -8 -12 0
-7 -8 -30 -17 -50 -9 -21 -13 -38 -9 -38 5 0 3 -4 -2 -8 -11 -7 -40 -91 -37
-104 1 -5 -3 -8 -8 -8 -5 0 -10 -9 -10 -20 0 -11 -4 -20 -8 -20 -4 0 -8 -8 -9
-18 -2 -29 -8 -47 -16 -53 -4 -3 -9 -16 -12 -28 -2 -13 -9 -29 -16 -37 -6 -8
-8 -14 -4 -14 4 0 2 -7 -5 -15 -7 -8 -10 -15 -7 -15 3 0 -10 -38 -28 -85 -19
-47 -31 -85 -28 -85 3 0 0 -6 -6 -13 -6 -8 -8 -17 -4 -20 3 -4 1 -7 -5 -7 -7
0 -12 -9 -12 -20 0 -11 -5 -20 -11 -20 -5 0 -7 -5 -4 -10 4 -6 2 -17 -5 -25
-6 -7 -13 -26 -16 -41 -3 -16 -8 -31 -12 -34 -7 -5 -10 -14 -18 -54 -2 -11 -9
-23 -15 -26 -6 -4 -10 -9 -8 -11 3 -5 -21 -79 -30 -94 -3 -5 -6 -17 -8 -25 -1
-8 -6 -23 -11 -35 -32 -72 -42 -98 -42 -115 0 -11 -5 -20 -11 -20 -5 0 -7 -4
-4 -10 3 -5 2 -10 -4 -10 -5 0 -9 -8 -9 -17 1 -10 -13 -53 -31 -96 -17 -43
-31 -84 -31 -92 0 -8 -5 -15 -10 -15 -6 0 -9 -3 -9 -7 4 -19 -15 -73 -24 -73
-6 0 -8 -3 -4 -6 3 -3 -3 -26 -13 -50 -11 -24 -17 -44 -13 -44 3 0 1 -6 -4
-12 -11 -14 -33 -78 -32 -92 0 -5 -4 -12 -11 -16 -6 -4 -12 -17 -13 -28 -1
-12 -4 -22 -7 -22 -3 0 -6 -10 -7 -22 -1 -11 -7 -24 -13 -28 -7 -4 -11 -11
-11 -16 3 -19 -43 -144 -52 -144 -6 0 -8 -3 -4 -6 3 -3 -3 -29 -15 -58 -11
-28 -21 -55 -22 -61 -1 -5 -10 -28 -20 -50 -9 -21 -18 -46 -19 -55 -2 -8 -6
-21 -10 -27 -5 -7 -5 -13 0 -13 4 0 0 -5 -10 -11 -9 -6 -15 -14 -12 -20 4 -5
3 -15 -2 -21 -4 -7 -8 -15 -9 -18 0 -3 -3 -12 -7 -20 -3 -8 -13 -37 -23 -65
-10 -27 -22 -56 -27 -62 -5 -7 -6 -13 -2 -13 4 0 2 -6 -4 -13 -6 -8 -8 -17 -4
-20 3 -4 1 -7 -5 -7 -7 0 -11 -3 -10 -7 1 -5 -4 -24 -11 -43 -8 -19 -13 -38
-12 -43 0 -4 -8 -24 -19 -44 -10 -20 -17 -40 -14 -45 3 -4 0 -8 -7 -8 -7 0
-10 -3 -6 -6 3 -3 -3 -25 -13 -49 -10 -24 -16 -46 -13 -49 4 -3 1 -6 -5 -6 -7
0 -12 -8 -12 -18 0 -10 -3 -22 -7 -26 -4 -3 -8 -14 -9 -23 -2 -10 -7 -26 -13
-38 -21 -45 -61 -156 -61 -170 0 -8 -4 -15 -8 -15 -5 0 -9 -6 -9 -12 -1 -15
-46 -141 -53 -148 -3 -3 -6 -11 -7 -17 -5 -23 16 -14 34 14 10 15 25 35 33 44
8 8 29 33 45 54 17 21 36 44 43 51 6 7 12 15 12 18 0 3 20 27 45 53 24 26 45
51 45 56 0 4 8 15 18 25 31 33 62 72 62 78 0 4 11 17 25 30 14 13 25 27 25 33
0 5 3 11 8 13 6 2 115 135 187 226 5 7 18 22 28 33 9 10 17 22 17 25 0 4 11
17 25 30 14 13 25 27 25 33 0 5 3 11 8 13 4 2 31 32 60 68 71 88 68 84 73 95
2 5 15 22 29 36 58 63 80 90 80 99 0 5 6 13 13 17 6 4 25 26 42 48 16 21 38
48 48 60 27 30 40 45 78 95 42 56 69 88 92 112 9 10 17 21 17 25 0 4 9 16 19
28 50 52 71 76 71 81 0 3 6 11 13 18 6 7 21 25 32 40 22 31 62 80 85 105 8 9
33 40 55 69 21 28 43 52 47 52 4 0 8 5 8 11 0 5 13 24 30 42 16 18 30 35 30
39 0 4 8 15 18 25 10 10 38 43 62 73 25 30 47 57 51 60 3 3 10 12 15 21 10 18
77 99 111 136 12 12 20 23 18 23 -5 0 27 39 55 69 8 9 26 32 40 51 13 19 34
45 45 57 25 27 30 33 90 111 26 34 52 62 57 62 5 0 6 5 3 10 -3 6 1 13 9 16 9
3 16 12 16 20 0 8 7 14 16 14 8 0 12 5 9 10 -3 6 1 13 9 16 9 3 16 10 16 15 0
8 31 47 68 85 6 7 12 15 12 17 0 5 42 56 73 88 9 11 14 19 10 19 -5 0 4 11 20
24 15 13 27 27 27 32 0 5 9 16 20 24 11 8 20 18 20 23 0 5 16 25 35 45 19 20
35 41 35 45 0 4 11 18 25 31 14 13 25 28 25 34 0 6 11 19 25 30 14 11 25 23
25 27 0 3 6 12 13 20 13 14 46 54 126 155 28 36 59 74 69 85 9 11 35 43 56 70
22 28 45 55 51 61 5 7 21 26 35 44 14 18 46 58 72 90 52 63 50 69 -19 64 -23
-2 -45 1 -48 6 -4 6 -12 7 -18 3 -17 -11 -1409 -11 -1424 -1 -6 5 -14 5 -17 0z"/>
</g>
</svg>
